<svg width="70" height="50" viewBox="0 0 70 50" fill="none" xmlns="http://www.w3.org/2000/svg">
<path d="M27.7022 37C37.6433 37 45.7022 28.9411 45.7022 19C45.7022 9.05888 37.6433 1 27.7022 1C17.761 1 9.70215 9.05888 9.70215 19C9.70215 28.9411 17.761 37 27.7022 37Z" stroke="white" stroke-width="2" stroke-miterlimit="10"/>
<path d="M1.96289 49C5.11666 45.2412 9.0554 42.2187 13.5023 40.1449C17.9492 38.0712 22.7963 36.9966 27.7029 36.9966C32.6095 36.9966 37.4566 38.0712 41.9035 40.1449C46.3504 42.2187 50.2892 45.2412 53.4429 49" stroke="white" stroke-width="2" stroke-linecap="round" stroke-linejoin="round"/>
<path d="M61.3029 34.6C63.9539 34.6 66.1029 32.451 66.1029 29.8C66.1029 27.149 63.9539 25 61.3029 25C58.652 25 56.5029 27.149 56.5029 29.8C56.5029 32.451 58.652 34.6 61.3029 34.6Z" stroke="white" stroke-width="2" stroke-linecap="round" stroke-linejoin="round"/>
<path d="M61.3027 25V21.4" stroke="white" stroke-width="2" stroke-linecap="round" stroke-linejoin="round"/>
<path d="M57.131 27.4L54.041 25.6" stroke="white" stroke-width="2" stroke-linecap="round" stroke-linejoin="round"/>
<path d="M57.131 32.2L54.041 34" stroke="white" stroke-width="2" stroke-linecap="round" stroke-linejoin="round"/>
<path d="M61.3027 34.6V38.2" stroke="white" stroke-width="2" stroke-linecap="round" stroke-linejoin="round"/>
<path d="M65.4717 32.2L68.5617 34" stroke="white" stroke-width="2" stroke-linecap="round" stroke-linejoin="round"/>
<path d="M65.4717 27.4L68.5617 25.6" stroke="white" stroke-width="2" stroke-linecap="round" stroke-linejoin="round"/>
</svg>
