<svg width="51" height="52" viewBox="0 0 51 52" fill="none" xmlns="http://www.w3.org/2000/svg">
<path d="M25.2547 34.3505C30.8362 34.3505 35.3609 29.8258 35.3609 24.2443C35.3609 18.6628 30.8362 14.1381 25.2547 14.1381C19.6731 14.1381 15.1484 18.6628 15.1484 24.2443C15.1484 29.8258 19.6731 34.3505 25.2547 34.3505Z" stroke="white" stroke-width="2" stroke-miterlimit="10"/>
<path d="M9.0332 44.3051C10.554 41.3097 12.8745 38.7939 15.7375 37.0365C18.6006 35.2792 21.8943 34.3489 25.2537 34.3489C28.6131 34.3489 31.9068 35.2792 34.7699 37.0365C37.6329 38.7939 39.9534 41.3097 41.4742 44.3051" stroke="white" stroke-width="2" stroke-linecap="round" stroke-linejoin="round"/>
<path d="M43.4458 12.1168C45.6784 12.1168 47.4883 10.307 47.4883 8.07435C47.4883 5.84174 45.6784 4.03186 43.4458 4.03186C41.2132 4.03186 39.4033 5.84174 39.4033 8.07435C39.4033 10.307 41.2132 12.1168 43.4458 12.1168Z" stroke="white" stroke-width="2" stroke-linecap="round" stroke-linejoin="round"/>
<path d="M43.4463 4.03187V1" stroke="white" stroke-width="2" stroke-linecap="round" stroke-linejoin="round"/>
<path d="M39.9334 6.0531L37.3311 4.53717" stroke="white" stroke-width="2" stroke-linecap="round" stroke-linejoin="round"/>
<path d="M39.9334 10.0956L37.3311 11.6115" stroke="white" stroke-width="2" stroke-linecap="round" stroke-linejoin="round"/>
<path d="M43.4463 12.1168V15.1487" stroke="white" stroke-width="2" stroke-linecap="round" stroke-linejoin="round"/>
<path d="M46.958 10.0956L49.5604 11.6115" stroke="white" stroke-width="2" stroke-linecap="round" stroke-linejoin="round"/>
<path d="M46.958 6.0531L49.5604 4.53717" stroke="white" stroke-width="2" stroke-linecap="round" stroke-linejoin="round"/>
<path d="M49.333 23.36C49.4556 24.3236 49.5147 25.2942 49.5099 26.2655C49.5099 31.0627 48.0873 35.7521 45.4222 39.7408C42.757 43.7295 38.9689 46.8383 34.5369 48.6741C30.1049 50.5099 25.228 50.9903 20.523 50.0544C15.818 49.1185 11.4962 46.8084 8.10412 43.4163C4.712 40.0242 2.40194 35.7024 1.46606 30.9974C0.530181 26.2924 1.01051 21.4155 2.84631 16.9835C4.68211 12.5515 7.79092 8.76343 11.7796 6.09826C15.7683 3.4331 20.4578 2.01057 25.2549 2.01057C26.0057 2.00583 26.7562 2.03956 27.5036 2.11163" stroke="white" stroke-width="2" stroke-linecap="round" stroke-linejoin="round"/>
</svg>
