<svg width="51" height="51" viewBox="0 0 51 51" fill="none" xmlns="http://www.w3.org/2000/svg">
<path d="M25.28 49.56C38.6895 49.56 49.56 38.6895 49.56 25.28C49.56 11.8705 38.6895 1 25.28 1C11.8705 1 1 11.8705 1 25.28C1 38.6895 11.8705 49.56 25.28 49.56Z" stroke="white" stroke-width="2" stroke-linecap="round" stroke-linejoin="round"/>
<path d="M28.2526 38.4317C28.2526 40.0733 26.9218 41.4042 25.2801 41.4042C23.6385 41.4042 22.3076 40.0733 22.3076 38.4317C22.3076 36.79 23.6385 35.4592 25.2801 35.4592C26.9218 35.4592 28.2526 36.79 28.2526 38.4317Z" fill="white" stroke="white" stroke-width="0.125"/>
<path d="M25.2799 29.3266V27.3033C26.6805 27.3033 28.0497 26.888 29.2143 26.1098C30.3788 25.3317 31.2865 24.2257 31.8225 22.9317C32.3585 21.6377 32.4988 20.2138 32.2255 18.8401C31.9523 17.4664 31.2778 16.2045 30.2874 15.2141C29.297 14.2237 28.0352 13.5493 26.6615 13.276C25.2878 13.0028 23.8639 13.143 22.5699 13.679C21.2759 14.215 20.1699 15.1227 19.3917 16.2873C18.6136 17.4518 18.1982 18.821 18.1982 20.2216" stroke="white" stroke-width="2" stroke-linecap="round" stroke-linejoin="round"/>
</svg>
