<svg width="18" height="15" viewBox="0 0 18 15" fill="none" xmlns="http://www.w3.org/2000/svg">
<g clip-path="url(#clip0_212_805)">
<path d="M4.95654 12.3042V13.9999" stroke="#828282" stroke-linecap="round" stroke-linejoin="round"/>
<path d="M12.8696 12.3042V13.9999" stroke="#828282" stroke-linecap="round" stroke-linejoin="round"/>
<path d="M3.82605 6.08696V2.41304C3.82605 2.03828 3.97492 1.67887 4.23992 1.41387C4.50492 1.14887 4.86433 1 5.23909 1C5.61386 1 5.97327 1.14887 6.23827 1.41387C6.50326 1.67887 6.65214 2.03828 6.65214 2.41304" stroke="#828282" stroke-linecap="round" stroke-linejoin="round"/>
<path d="M14 5.52173H9.47827V8.91303H14V5.52173Z" stroke="#828282" stroke-linecap="round" stroke-linejoin="round"/>
<path d="M14 6.08691H16.2609C16.4108 6.08691 16.5545 6.14645 16.6605 6.25245C16.7665 6.35845 16.8261 6.50222 16.8261 6.65212V8.91299C16.8261 9.81242 16.4688 10.675 15.8328 11.311C15.1968 11.947 14.3342 12.3043 13.4348 12.3043H4.3913C3.49187 12.3043 2.62928 11.947 1.99329 11.311C1.3573 10.675 1 9.81242 1 8.91299V6.65212C1 6.50222 1.05955 6.35845 1.16555 6.25245C1.27155 6.14645 1.41531 6.08691 1.56522 6.08691H9.47826" stroke="#828282" stroke-linecap="round" stroke-linejoin="round"/>
</g>
<defs>
<clipPath id="clip0_212_805">
<rect width="18" height="15" fill="white"/>
</clipPath>
</defs>
</svg>
