<svg width="275" height="43" viewBox="0 0 275 43" fill="none" xmlns="http://www.w3.org/2000/svg">
<path d="M58.6058 24.1836C58.3092 24.1836 58.0155 24.1557 57.7343 24.1031C57.4469 24.0475 57.1842 23.9394 56.937 23.7695C56.6867 23.6859 56.4951 23.5716 56.3621 23.4293C56.2261 23.2872 56.1272 23.0956 56.0655 22.8545C56.0035 22.6165 55.9603 22.3136 55.9448 21.949C55.9263 21.5842 55.9171 21.1331 55.9171 20.5953V0.574463H52.5391C52.5391 1.74577 52.5359 2.82439 52.5328 3.81021C52.5267 4.79927 52.5236 5.7295 52.5236 6.61039C52.5236 7.48803 52.5174 8.32557 52.5112 9.12289C52.5051 9.91722 52.502 10.7084 52.502 11.4996C52.502 12.2044 52.5051 12.9181 52.5112 13.6414C52.5174 14.3676 52.5267 15.1187 52.5328 15.9037C52.5359 16.6856 52.5452 17.5108 52.5607 18.3792C52.5699 19.2476 52.5916 20.1748 52.6133 21.17V21.4204C52.6133 22.091 52.6904 22.6443 52.8481 23.08C53.0026 23.5158 53.2344 23.865 53.5496 24.1277C53.8649 24.3935 54.2697 24.5789 54.755 24.6841C55.2463 24.7921 55.8274 24.8479 56.5104 24.8479H59.4589V24.1834H58.6058V24.1836Z" fill="black"/>
<path d="M135.651 23.8962C135.12 23.754 134.613 23.5284 134.131 23.2224C133.649 22.9195 133.17 22.5085 132.703 21.9955C132.233 21.4793 131.717 20.7994 131.164 19.9494L125.972 12.9709C126.998 12.7794 127.891 12.4918 128.661 12.1087C129.424 11.7255 130.061 11.2712 130.567 10.7459C131.074 10.2204 131.454 9.62394 131.708 8.9594C131.961 8.29799 132.088 7.58111 132.088 6.81764C132.088 6.07591 131.967 5.39601 131.729 4.78106C131.488 4.16586 131.164 3.61261 130.756 3.12133C130.348 2.62979 129.869 2.21272 129.328 1.86658C128.784 1.5172 128.206 1.24213 127.603 1.04139C126.998 0.871388 126.21 0.735364 125.236 0.627315C124.269 0.51914 123.097 0.466553 121.722 0.466553H112.71V1.20217H113.656C114.558 1.20217 115.269 1.4525 115.788 1.95627C115.961 2.15713 116.088 2.49089 116.168 2.95145C116.249 3.412 116.289 4.03632 116.289 4.8244V24.8822H119.757V13.4533C120.029 13.4904 120.263 13.5151 120.461 13.5275C120.662 13.5398 120.854 13.5429 121.049 13.5367C121.237 13.5306 121.438 13.5182 121.651 13.4996C121.861 13.4811 122.115 13.4656 122.411 13.4533L129.643 23.2319C129.928 23.6151 130.163 23.9179 130.348 24.1374C130.534 24.3598 130.719 24.5237 130.904 24.6319C131.087 24.7401 131.294 24.808 131.516 24.8389C131.739 24.8667 132.026 24.8822 132.388 24.8822H137.45V24.2363C136.78 24.1527 136.183 24.0384 135.651 23.8962ZM123.141 12.1797C122.124 12.4084 120.993 12.4486 119.757 12.3065V2.18786C120.353 2.10442 120.897 2.03022 121.398 1.96226C121.902 1.89731 122.319 1.86646 122.653 1.86646C123.481 1.86646 124.226 1.99924 124.896 2.26817C125.564 2.53699 126.129 2.90486 126.593 3.37153C127.057 3.83808 127.412 4.3852 127.659 5.01264C127.907 5.63995 128.03 6.31999 128.03 7.04935C128.03 7.8498 127.829 8.6009 127.437 9.30241C127.038 10.0009 126.482 10.6005 125.759 11.0951C125.035 11.5926 124.161 11.9542 123.141 12.1797Z" fill="black"/>
<path d="M163.629 23.9148C163.225 23.7602 162.869 23.5284 162.554 23.2225C162.235 22.9196 161.942 22.5271 161.67 22.0481C161.398 21.569 161.107 20.9849 160.798 20.2895L152.157 0.123535H151.452L140.567 24.8822H142.292L144.721 19.3563C144.907 18.9978 145.145 18.6114 145.435 18.2004C145.726 17.7863 146.066 17.3753 146.455 16.9611C146.844 16.55 147.283 16.1482 147.772 15.7588C148.26 15.3724 148.791 15.0264 149.366 14.7296C149.941 14.43 150.562 14.1858 151.23 13.9942C151.898 13.8025 152.608 13.6944 153.363 13.6695C152.979 13.4439 152.469 13.2647 151.833 13.1317C151.196 12.9988 150.55 12.9339 149.895 12.9339C149.338 12.9339 148.822 12.9865 148.346 13.0854C147.87 13.1873 147.496 13.3542 147.225 13.5798L150.785 5.72351L157.071 20.2894C157.516 21.3309 158.02 22.1561 158.583 22.7649C159.145 23.3769 159.723 23.8436 160.316 24.165C160.91 24.4895 161.497 24.6966 162.078 24.7923C162.659 24.8882 163.19 24.9375 163.673 24.9375C163.969 24.9375 164.241 24.9283 164.489 24.9097C164.736 24.8911 164.946 24.8818 165.119 24.8818V24.2174C164.526 24.1712 164.028 24.0693 163.629 23.9148Z" fill="black"/>
<path d="M198.396 11.9913C197.543 12.2601 196.894 12.6064 196.439 13.0236C195.988 13.4439 195.695 13.9075 195.562 14.4144C195.423 14.9244 195.37 15.4158 195.392 15.8948V22.8549C194.579 23.2752 193.738 23.6027 192.879 23.8438C192.02 24.0818 191.114 24.2023 190.163 24.2023C188.79 24.2023 187.532 23.9119 186.389 23.3308C185.245 22.7497 184.222 21.8998 183.32 20.7748C182.43 19.6499 181.753 18.3951 181.289 17.0074C180.826 15.6198 180.594 14.0714 180.594 12.3592C180.594 9.3705 181.361 6.77441 182.893 4.57394C183.722 3.48607 184.714 2.67326 185.87 2.13551C187.026 1.59476 188.376 1.32595 189.922 1.32595C191.998 1.32595 193.729 1.84822 195.117 2.88662C196.498 3.92815 197.537 5.53215 198.232 7.69552H198.918C198.832 6.70359 198.622 5.8227 198.297 5.05935C197.969 4.29289 197.561 3.62536 197.07 3.05975C196.582 2.49102 196.041 2.00898 195.441 1.61338C194.839 1.22078 194.221 0.902741 193.584 0.664532C192.947 0.423324 192.314 0.253451 191.683 0.151521C191.053 0.0495922 190.465 0 189.921 0C189.106 0 188.379 0.0309807 187.743 0.0896899C187.106 0.148524 186.522 0.244208 185.99 0.377241C185.459 0.507025 184.958 0.674029 184.488 0.868644C184.019 1.06638 183.549 1.2981 183.079 1.56091C181.175 2.57771 179.574 4.15699 178.276 6.29563C177.633 7.4206 177.145 8.54244 176.811 9.66129C176.477 10.78 176.311 11.9175 176.311 13.0794C176.311 14.7886 176.623 16.3678 177.247 17.8141C177.871 19.2606 178.795 20.5833 180.019 21.7794C181.218 23.0001 182.662 23.9119 184.349 24.5145C186.037 25.1204 187.974 25.4201 190.163 25.4201C191.77 25.4201 193.3 25.2407 194.752 24.8822C196.205 24.5237 197.626 23.986 199.011 23.269V15.8236C199.011 15.2612 199.033 14.7574 199.085 14.3154C199.135 13.8735 199.252 13.4996 199.444 13.1937C199.638 12.8908 199.923 12.6558 200.297 12.4952C200.674 12.3344 201.184 12.2542 201.829 12.2542V11.5896C200.392 11.5895 199.249 11.7224 198.396 11.9913Z" fill="black"/>
<path d="M224.957 0.537598V14.6739C224.957 15.9411 224.898 17.0322 224.78 17.9406C224.663 18.8493 224.499 19.5786 224.289 20.1289C224.017 20.679 223.665 21.1704 223.232 21.6C222.799 22.0294 222.249 22.4375 221.582 22.8206C220.914 23.1546 220.231 23.4078 219.533 23.581C218.834 23.7571 218.065 23.8437 217.224 23.8437C216.581 23.8437 215.981 23.7788 215.425 23.6552C214.869 23.5284 214.374 23.3585 213.942 23.1422C213.509 22.9382 213.123 22.694 212.783 22.4065C212.443 22.1191 212.168 21.8101 211.958 21.4733C211.723 21.1394 211.525 20.7376 211.364 20.271C211.204 19.8043 211.074 19.248 210.975 18.6021C210.888 18.0303 210.826 17.471 210.789 16.927C210.752 16.3831 210.734 15.8824 210.734 15.428V4.84285C210.734 3.95884 210.74 3.23872 210.752 2.68249C210.765 2.12612 210.746 1.68729 210.697 1.37201C210.647 1.05373 210.545 0.837394 210.391 0.716977C210.236 0.596311 209.998 0.537598 209.677 0.537598H203.521V1.22063H204.466C204.948 1.22063 205.359 1.27008 205.699 1.37201C206.039 1.47406 206.296 1.64407 206.469 1.88203C206.926 2.3271 207.155 3.31291 207.155 4.84285V14.3339C207.155 15.7679 207.201 16.9826 207.294 17.9746C207.387 18.9699 207.538 19.7394 207.748 20.2894C208.02 21.056 208.41 21.7482 208.917 22.3726C209.423 22.9938 210.029 23.5376 210.734 24.0043C212.193 24.9006 214.276 25.3487 216.983 25.3487C218.256 25.3487 219.387 25.2343 220.377 25.0087C221.365 24.78 222.231 24.4153 222.973 23.9146C223.714 23.4479 224.329 22.9257 224.818 22.3446C225.306 21.7637 225.674 21.1332 225.921 20.4501C226.144 19.7825 226.317 18.982 226.44 18.0549C226.564 17.1308 226.626 16.0553 226.626 14.8345V0.537476H224.957V0.537598Z" fill="black"/>
<path d="M243.359 23.2872C242.543 23.2872 241.906 23.281 241.449 23.2689C240.991 23.2564 240.695 23.2069 240.559 23.1235C240.385 23.0771 240.234 22.9999 240.104 22.8918C239.974 22.7836 239.866 22.6322 239.78 22.4343C239.693 22.2366 239.631 21.9863 239.594 21.6802C239.557 21.3743 239.539 21.0064 239.539 20.577V4.44719C239.539 4.1133 239.52 3.7703 239.483 3.41804C239.446 3.06254 239.384 2.71653 239.298 2.37651C239.211 2.0365 239.087 1.73045 238.927 1.46164C238.766 1.19282 238.556 0.973351 238.296 0.806467C238.037 0.639583 237.715 0.556152 237.332 0.556152H232.492V1.29176H233.438C233.904 1.29176 234.312 1.35347 234.652 1.48025C234.992 1.60392 235.292 1.78629 235.552 2.02738C235.725 2.23148 235.851 2.56201 235.932 3.02269C236.012 3.48312 236.052 4.10743 236.052 4.89863V24.8483H252.946V23.2876H243.359V23.2872Z" fill="black"/>
<path d="M256.509 0.574478V1.2359H257.38C257.677 1.2359 257.974 1.27599 258.271 1.35319C258.567 1.43051 258.839 1.53555 259.086 1.66846C259.321 1.83534 259.507 1.99299 259.643 2.14126C259.779 2.29278 259.874 2.48128 259.93 2.70688C259.986 2.93547 260.02 3.21977 260.032 3.55979C260.044 3.8998 260.05 4.34799 260.05 4.89811V24.8817H263.592V12.952H271.974V11.4253H263.592V1.90005H269.121C269.974 1.90005 270.698 1.95564 271.291 2.06069C271.884 2.16886 272.391 2.36986 272.812 2.66341C273.232 2.95695 273.581 3.36192 273.869 3.88405C274.153 4.40332 274.409 5.0771 274.647 5.90228H275V0.574097H256.509V0.574478Z" fill="black"/>
<path d="M83.0308 0.590088V18.7998L69.7351 2.88636C69.3519 2.44442 68.9809 2.07968 68.6224 1.79226C68.2639 1.50483 67.8901 1.27935 67.5006 1.11234C67.1112 0.945455 66.6846 0.83116 66.2211 0.769452C65.7575 0.710618 65.229 0.679641 64.6356 0.679641H61.168V1.34419C62.7009 1.34419 63.8877 1.72117 64.7284 2.47527C65.5689 3.22937 65.9892 4.35134 65.9892 5.84718V24.8635H67.6026V5.75749L83.958 25.2777H84.6442V0.590088H83.0308Z" fill="black"/>
<path d="M90.5283 0.574478V1.2359H91.4C91.6966 1.2359 91.9933 1.27599 92.29 1.35319C92.5866 1.43051 92.8586 1.53555 93.1059 1.66846C93.3407 1.83534 93.5262 1.99299 93.6621 2.14126C93.7982 2.29278 93.894 2.48128 93.9497 2.70688C94.0053 2.93547 94.0393 3.21977 94.0516 3.55979C94.064 3.8998 94.0701 4.34799 94.0701 4.89811V24.8817H97.6119V12.952H105.994V11.4253H97.6119V1.90005H103.138C103.991 1.90005 104.714 1.95564 105.308 2.06069C105.901 2.16886 106.408 2.36986 106.828 2.66341C107.248 2.95708 107.601 3.36192 107.885 3.88405C108.169 4.40332 108.429 5.0771 108.664 5.90228H109.016V0.574097H90.5283V0.574478Z" fill="black"/>
<path d="M55.5924 33.3691H52.502V41.6087H53.1355V38.5366H55.4349C57.2119 38.5366 58.7541 37.6403 58.7541 35.9126V35.8879C58.7541 34.2994 57.4655 33.3691 55.5924 33.3691ZM58.1238 35.9467C58.1238 37.1706 57.0514 37.9711 55.472 37.9711H53.1356V33.9348H55.5432C57.0762 33.9348 58.1238 34.6178 58.1238 35.922V35.9467Z" fill="black"/>
<path d="M70.8358 38.0885C72.2698 37.9 73.3298 37.1119 73.3298 35.7335V35.7118C73.3298 34.3333 72.1245 33.3691 70.2887 33.3691H66.7129V41.6087H67.3465V38.1935H70.131L72.8415 41.6087H73.6451L70.8358 38.0885ZM67.3465 37.6404V33.9348H70.2516C71.7969 33.9348 72.6962 34.6301 72.6962 35.7335V35.7581C72.6962 36.948 71.6392 37.6403 70.2145 37.6403H67.3465V37.6404Z" fill="black"/>
<path d="M89.7769 37.4644C89.7769 35.2177 88.0864 33.2271 85.5058 33.2271C82.9282 33.2271 81.2129 35.2422 81.2129 37.489V37.5107C81.2129 39.7606 82.9035 41.7479 85.4809 41.7479C88.0616 41.7479 89.7769 39.7359 89.7769 37.489C89.7862 37.4767 89.7862 37.4767 89.7769 37.4644ZM89.1187 37.5107C89.1187 39.5474 87.6104 41.1946 85.5058 41.1946C83.4011 41.1946 81.8681 39.5258 81.8681 37.489V37.4644C81.8681 35.4308 83.3763 33.7803 85.4809 33.7803C87.5857 33.7803 89.1187 35.4524 89.1187 37.489V37.5107Z" fill="black"/>
<path d="M101.102 33.3691H98.0117V41.6087H98.6453V38.5366H100.945C102.722 38.5366 104.267 37.6403 104.267 35.9126V35.8879C104.267 34.2994 102.975 33.3691 101.102 33.3691ZM103.634 35.9467C103.634 37.1706 102.564 37.9711 100.982 37.9711H98.6453V33.9348H101.056C102.586 33.9348 103.634 34.6178 103.634 35.922V35.9467Z" fill="black"/>
<path d="M112.855 41.0431V37.7361H117.732V37.1706H112.855V33.9348H118.279V33.3691H112.222V41.6087H118.341V41.0431H112.855Z" fill="black"/>
<path d="M130.579 38.0885C132.013 37.9 133.073 37.1119 133.073 35.7335V35.7118C133.073 34.3333 131.868 33.3691 130.032 33.3691H126.453V41.6087H127.087V38.1935H129.871L132.585 41.6087H133.388L130.579 38.0885ZM127.087 37.6404V33.9348H129.995C131.54 33.9348 132.439 34.6301 132.439 35.7335V35.7581C132.439 36.948 131.383 37.6403 129.958 37.6403H127.087V37.6404Z" fill="black"/>
<path d="M140.602 33.3691V33.9348H143.568V41.6087H144.202V33.9348H147.169V33.3691H140.602Z" fill="black"/>
<path d="M155.895 33.3691H155.262V41.6087H155.895V33.3691Z" fill="black"/>
<path d="M165.225 41.0431V37.7361H170.102V37.1706H165.225V33.9348H170.649V33.3691H164.592V41.6087H170.711V41.0431H165.225Z" fill="black"/>
<path d="M181.732 37.1831C179.714 36.7812 179.25 36.2529 179.25 35.3812V35.3596C179.25 34.5005 180.078 33.8051 181.33 33.8051C182.266 33.8051 183.07 34.0646 183.873 34.7353L184.275 34.2533C183.41 33.5826 182.597 33.2518 181.354 33.2518C179.772 33.2518 178.619 34.1944 178.619 35.4183V35.4401C178.619 36.6886 179.445 37.3592 181.491 37.7579C183.422 38.1352 183.898 38.6418 183.898 39.5135V39.5352C183.898 40.4778 183.02 41.1731 181.744 41.1731C180.492 41.1731 179.627 40.7837 178.69 39.9493L178.276 40.4066C179.299 41.2905 180.347 41.7263 181.71 41.7263C183.351 41.7263 184.532 40.8083 184.532 39.4763V39.4546C184.532 38.2524 183.704 37.5693 181.732 37.1831Z" fill="black"/>
<path d="M11.823 41.1546C11.823 41.2075 11.7782 41.2509 11.7235 41.2509H0.0994843C0.0447628 41.2509 0 41.2075 0 41.1546C0 41.0969 0.0447628 41.0536 0.0994843 41.0536C1.52699 41.0536 2.68591 39.9324 2.68591 38.5562V3.58317C2.68591 2.20687 1.52699 1.08575 0.0994843 1.08575C0.0447628 1.08575 0 1.04245 0 0.98951C0 0.931783 0.0447628 0.888428 0.0994843 0.888428H11.7235C11.7782 0.888428 11.823 0.931783 11.823 0.98951C11.823 1.04245 11.7782 1.08575 11.7235 1.08575C10.296 1.08575 9.1371 2.20687 9.1371 3.58317V38.5562C9.1371 39.9324 10.296 41.0536 11.7235 41.0536C11.7782 41.0536 11.823 41.0969 11.823 41.1546Z" fill="black"/>
<path d="M37.2983 0.985083V8.70379C37.2983 8.75785 37.2546 8.80562 37.1944 8.80562C37.1403 8.80562 37.0946 8.75785 37.0946 8.70379C36.8722 7.46722 35.9515 6.34911 34.9082 5.44506C34.9041 5.44299 34.8999 5.44092 34.8978 5.43674C33.389 4.13366 31.6307 3.27742 31.3689 3.15478C31.3523 3.14652 31.3419 3.14233 31.3377 3.13815H31.3357C21.2706 -2.30897 15.1604 3.4624 14.6554 3.96743C14.6492 3.97363 14.6451 3.97781 14.6409 3.98195L14.6305 3.99233C14.6243 3.99857 14.6222 4.00069 14.6222 4.00069C13.0946 5.68198 11.8041 7.84341 10.8418 10.3498V3.5663C12.0763 2.72044 13.4043 2.00554 14.8071 1.44648C15.0835 1.33427 15.3641 1.23032 15.6468 1.1306C17.7375 0.396955 19.9779 0 22.3076 0C23.7396 0 25.1465 0.143404 26.5244 0.436411C27.9023 0.731579 29.2407 1.16381 30.5438 1.74574C30.5542 1.74992 30.5729 1.7603 30.5937 1.77068C30.9429 1.9099 31.3149 2.08867 31.6931 2.30479H31.6973C31.718 2.31935 31.7368 2.32766 31.7575 2.33804C31.851 2.38586 31.9466 2.43988 32.036 2.4877L32.1108 2.52508C32.1503 2.55003 32.1857 2.56872 32.2252 2.59366C33.0814 3.06544 33.8919 3.3003 34.6173 3.3003C34.8667 3.3003 35.1056 3.27329 35.3302 3.21509C35.3426 3.21303 35.355 3.20885 35.3676 3.20467C35.5691 3.15272 35.7603 3.07582 35.9412 2.97399C36.6624 2.56872 37.0946 1.82676 37.0946 0.985083C37.0946 0.933133 37.1404 0.889497 37.1944 0.889497C37.2546 0.889497 37.2983 0.933133 37.2983 0.985083Z" fill="black"/>
<path d="M39.9763 21.1069C39.9611 21.1459 39.921 21.1692 39.8792 21.1692C38.4549 21.1706 37.2983 22.2902 37.2983 23.6676C37.2983 23.6693 37.2966 23.6715 37.2966 23.6737V41.0006C37.2966 41.0804 37.2504 41.1554 37.176 41.1841C37.1753 41.1843 37.1748 41.1845 37.1741 41.1848C37.1653 41.1881 37.1566 41.1908 37.1483 41.1919H37.1455C37.1407 41.193 37.1356 41.1935 37.1302 41.1935C37.0764 41.1935 37.0302 41.1495 37.0302 41.098C37.0302 40.2564 36.5979 39.5142 35.8771 39.1088C35.6959 39.0072 35.5047 38.9302 35.3031 38.8781C35.291 38.8742 35.2783 38.8698 35.2657 38.8676C35.0416 38.8099 34.8027 38.7825 34.5532 38.7825C33.9753 38.7825 33.3436 38.9324 32.6762 39.2318C32.5081 39.3087 32.3356 39.3938 32.1609 39.4894C32.1213 39.5141 32.0862 39.5328 32.0466 39.5581L31.9719 39.5954C31.8824 39.6433 31.7867 39.697 31.6933 39.7449C31.6725 39.7553 31.6538 39.7635 31.6329 39.7784H31.6291C31.2506 39.9943 30.8786 40.1728 30.5293 40.3123C30.5084 40.3228 30.4898 40.3332 30.4793 40.337C29.1763 40.9193 27.8382 41.3511 26.4604 41.6466C25.4271 41.8669 24.3779 42.0021 23.3116 42.0559C23.1435 42.0642 22.9749 42.0702 22.8068 42.0767C22.6194 42.0806 22.4305 42.0828 22.2432 42.0828C22.1228 42.0828 22.0004 42.0806 21.8795 42.079C17.8002 41.9916 14.0114 40.6925 10.8418 38.5143V31.8972C11.796 34.3329 13.0639 36.4385 14.558 38.0821C14.558 38.0821 14.5602 38.0843 14.5663 38.0909L14.591 38.1156C14.6515 38.1761 14.797 38.315 15.0195 38.5023C16.6115 39.8344 22.2415 43.6062 30.8435 39.1692V23.6693C30.8435 23.6693 30.8413 23.6693 30.8413 23.6676C30.8413 22.2897 29.684 21.1699 28.2612 21.1692C28.2222 21.1692 28.1844 21.1492 28.167 21.1142C28.1314 21.0428 28.1891 20.9698 28.26 20.9698H30.9451C30.9473 20.9698 30.9473 20.9721 30.9473 20.9721H37.1921C37.1943 20.9721 37.1943 20.9698 37.1966 20.9698H39.8817C39.9502 20.9698 40.003 21.0379 39.9763 21.1069Z" fill="black"/>
</svg>
