<svg width="24" height="25" viewBox="0 0 24 25" fill="none" xmlns="http://www.w3.org/2000/svg">
<g clip-path="url(#clip0_324_60)">
<path d="M23.5 12.7744C23.5 19.0917 18.3535 24.2169 12 24.2169C5.64646 24.2169 0.5 19.0917 0.5 12.7744C0.5 6.45725 5.64646 1.33203 12 1.33203C18.3535 1.33203 23.5 6.45725 23.5 12.7744Z" stroke="black"/>
<path d="M13.8115 8.16199C14.5944 8.37108 15.3082 8.78142 15.8813 9.35182C16.4545 9.92222 16.8668 10.6326 17.0769 11.4117" stroke="black" stroke-linecap="round" stroke-linejoin="round"/>
<path d="M13.3328 9.93616C13.8036 10.0606 14.233 10.3067 14.5775 10.6495C14.922 10.9924 15.1693 11.4197 15.2943 11.8883" stroke="black" stroke-linecap="round" stroke-linejoin="round"/>
<path d="M9.95194 13.0308C10.4269 14.0069 11.2199 14.7941 12.2019 15.2643C12.2744 15.2984 12.3545 15.3132 12.4344 15.3072C12.5143 15.3011 12.5913 15.2745 12.6577 15.2298L14.1 14.271C14.1637 14.228 14.2374 14.2017 14.314 14.1947C14.3907 14.1877 14.4679 14.2001 14.5385 14.2308L17.2385 15.3849C17.3308 15.4231 17.4079 15.4904 17.4579 15.5765C17.5079 15.6627 17.5281 15.7627 17.5154 15.8614C17.4298 16.5261 17.1038 17.137 16.5984 17.5798C16.0929 18.0226 15.4426 18.267 14.7692 18.2671C12.6883 18.2671 10.6926 17.4444 9.22118 15.9801C7.74974 14.5157 6.9231 12.5296 6.9231 10.4586C6.92325 9.78845 7.16876 9.14131 7.61369 8.63827C8.05862 8.13524 8.67248 7.81079 9.3404 7.72562C9.43954 7.71295 9.54012 7.73306 9.62664 7.78286C9.71317 7.83266 9.78084 7.90938 9.81925 8.00122L10.9789 10.694C11.009 10.7631 11.0216 10.8385 11.0156 10.9136C11.0096 10.9887 10.9851 11.0612 10.9442 11.1246L9.98079 12.583C9.93789 12.6489 9.91272 12.7247 9.90767 12.8032C9.90262 12.8816 9.91786 12.9599 9.95194 13.0308Z" stroke="black" stroke-linecap="round" stroke-linejoin="round"/>
</g>
<defs>
<clipPath id="clip0_324_60">
<rect width="24" height="25" fill="white"/>
</clipPath>
</defs>
</svg>
