<svg width="34" height="34" viewBox="0 0 34 34" fill="none" xmlns="http://www.w3.org/2000/svg">
<g clip-path="url(#clip0_324_54)">
<path d="M17 34C26.3888 34 34 26.3888 34 17C34 7.61116 26.3888 0 17 0C7.61116 0 0 7.61116 0 17C0 26.3888 7.61116 34 17 34Z" fill="white"/>
<path d="M20.0315 9.70801C21.2852 10.0445 22.4283 10.7048 23.3462 11.6226C24.2641 12.5405 24.9244 13.6837 25.2608 14.9374" stroke="black" stroke-linecap="round" stroke-linejoin="round"/>
<path d="M19.2646 12.563C20.0187 12.7632 20.7064 13.1593 21.258 13.7109C21.8097 14.2626 22.2057 14.9503 22.406 15.7043" stroke="black" stroke-linecap="round" stroke-linejoin="round"/>
<path d="M13.8505 17.5429C14.6111 19.1136 15.8812 20.3804 17.4538 21.1369C17.5698 21.1919 17.6981 21.2156 17.8261 21.2059C17.9541 21.1962 18.0773 21.1533 18.1837 21.0815L20.4935 19.5386C20.5955 19.4693 20.7135 19.4271 20.8362 19.4158C20.959 19.4045 21.0827 19.4245 21.1957 19.4739L25.5196 21.3309C25.6673 21.3925 25.7908 21.5008 25.8709 21.6394C25.9511 21.778 25.9834 21.939 25.963 22.0978C25.826 23.1674 25.3039 24.1505 24.4944 24.863C23.685 25.5756 22.6436 25.9687 21.5652 25.969C18.2327 25.969 15.0367 24.6452 12.6803 22.2887C10.3238 19.9323 9 16.7363 9 13.4038C9.00024 12.3254 9.39342 11.284 10.1059 10.4746C10.8185 9.6651 11.8015 9.143 12.8712 9.00595C13.03 8.98556 13.191 9.01792 13.3296 9.09805C13.4682 9.17819 13.5765 9.30165 13.638 9.44943L15.4951 13.7826C15.5434 13.8938 15.5636 14.0151 15.5539 14.136C15.5443 14.2568 15.505 14.3734 15.4397 14.4755L13.8967 16.8223C13.828 16.9284 13.7877 17.0504 13.7796 17.1766C13.7716 17.3027 13.796 17.4289 13.8505 17.5429Z" stroke="black" stroke-linecap="round" stroke-linejoin="round"/>
</g>
<defs>
<clipPath id="clip0_324_54">
<rect width="34" height="34" fill="white"/>
</clipPath>
</defs>
</svg>
