<svg width="83" height="83" viewBox="0 0 83 83" fill="none" xmlns="http://www.w3.org/2000/svg">
<g clip-path="url(#clip0_324_180)">
<path d="M41.5 83C64.4198 83 83 64.4198 83 41.5C83 18.5802 64.4198 0 41.5 0C18.5802 0 0 18.5802 0 41.5C0 64.4198 18.5802 83 41.5 83Z" fill="white"/>
<path d="M22.9442 43.9639C21.2181 41.0558 20.6131 37.6177 21.2428 34.2951C21.8725 30.9725 23.6935 27.9942 26.364 25.9194C29.0344 23.8446 32.3704 22.8161 35.7456 23.0271C39.1207 23.2381 42.3027 24.674 44.6939 27.0652C47.0851 29.4565 48.5211 32.6385 48.7321 36.0136C48.9431 39.3887 47.9146 42.7248 45.8398 45.3952C43.765 48.0656 40.7866 49.8867 37.464 50.5164C34.1415 51.1461 30.7033 50.5411 27.7953 48.815L23.0019 50.1818C22.8044 50.2373 22.5957 50.2392 22.3972 50.1873C22.1987 50.1354 22.0176 50.0316 21.8726 49.8866C21.7275 49.7415 21.6237 49.5604 21.5718 49.3619C21.5199 49.1634 21.5219 48.9547 21.5774 48.7572L22.9442 43.9639Z" stroke="black" stroke-width="2" stroke-linecap="round" stroke-linejoin="round"/>
<path d="M34.1094 50.74C34.7878 52.6744 35.8875 54.4339 37.3289 55.8914C38.7704 57.349 40.5175 58.4682 42.4442 59.1681C44.371 59.8681 46.4291 60.1313 48.4699 59.9388C50.5108 59.7464 52.4834 59.103 54.2453 58.0551L59.0387 59.4219C59.2361 59.4774 59.4449 59.4794 59.6434 59.4275C59.8418 59.3756 60.0229 59.2718 60.168 59.1267C60.3131 58.9817 60.4169 58.8006 60.4688 58.6021C60.5206 58.4036 60.5187 58.1949 60.4632 57.9974L59.0964 53.204C60.3166 51.1558 60.9871 48.8271 61.0428 46.4436C61.0985 44.0602 60.5377 41.7027 59.4145 39.5997C58.2913 37.4967 56.644 35.7194 54.6321 34.4402C52.6202 33.1609 50.312 32.4231 47.9312 32.2981" stroke="black" stroke-width="2" stroke-linecap="round" stroke-linejoin="round"/>
</g>
<defs>
<clipPath id="clip0_324_180">
<rect width="83" height="83" fill="white"/>
</clipPath>
</defs>
</svg>
