<svg width="14" height="13" viewBox="0 0 14 13" fill="none" xmlns="http://www.w3.org/2000/svg">
<path d="M1.49696 1H12.1727C12.2691 1.00003 12.3634 1.0281 12.4442 1.0808C12.5249 1.1335 12.5886 1.20855 12.6275 1.2968C12.6663 1.38505 12.6787 1.4827 12.663 1.57785C12.6474 1.67299 12.6044 1.76153 12.5393 1.83268L8.45667 6.32542C8.3717 6.41637 8.32498 6.53652 8.32617 6.66098V10.1781C8.32693 10.2607 8.30683 10.3422 8.26772 10.415C8.22862 10.4878 8.17178 10.5495 8.10247 10.5945L6.11398 11.918C6.03939 11.9672 5.95294 11.9953 5.86372 11.9995C5.7745 12.0036 5.68581 11.9837 5.60697 11.9417C5.52812 11.8997 5.46204 11.8373 5.41567 11.761C5.3693 11.6846 5.34435 11.5972 5.34344 11.5079V6.66098C5.34464 6.53652 5.29792 6.41637 5.21295 6.32542L1.13034 1.83268C1.06525 1.76153 1.02226 1.67299 1.0066 1.57785C0.99094 1.4827 1.00329 1.38505 1.04215 1.2968C1.08101 1.20855 1.14469 1.1335 1.22545 1.0808C1.3062 1.0281 1.40054 1.00003 1.49696 1Z" stroke="white" stroke-linecap="round" stroke-linejoin="round"/>
</svg>
