<svg width="275" height="45" viewBox="0 0 275 45" fill="none" xmlns="http://www.w3.org/2000/svg">
<path d="M25.1738 7.24472V40.9312C26.9679 40.9312 28.4227 39.4766 28.4227 37.6838V3.99731C26.6287 3.99633 25.1738 5.45095 25.1738 7.24472Z" fill="#D3A188"/>
<path d="M19.7949 36.8333C21.5674 36.8333 23.0036 35.7727 23.0036 34.4661V9.91504C21.2311 9.91504 19.7949 10.9746 19.7949 12.2822V36.8333Z" fill="#D3A188"/>
<path d="M34.9748 3.87081C36.7766 4.16683 38.4628 4.56676 40.0324 5.07156C41.6029 5.57735 43.0676 6.16743 44.4263 6.83984C45.7851 7.51422 47.0654 8.22975 48.2673 8.98843V4.18742C46.7507 3.55617 45.2449 2.98275 43.7499 2.46619C42.2548 1.9506 40.7177 1.50853 39.1373 1.13899C37.558 0.77142 35.9041 0.487167 34.1777 0.286226C32.6102 0.104889 30.9142 0.0176436 29.1211 0V3.42973C29.1397 3.42973 29.1554 3.42874 29.1721 3.42874C31.2396 3.42874 33.1729 3.57675 34.9748 3.87081Z" fill="#D3A188"/>
<path d="M14.1043 2.43398C11.9877 3.2446 10.0604 4.27185 8.32318 5.51376C6.586 6.75666 5.10077 8.21423 3.87043 9.88841C2.63813 11.5626 1.68523 13.4465 1.01075 15.5412C0.336266 17.6369 0 19.958 0 22.5065C0 26.3165 0.727419 29.6335 2.17932 32.4555C3.6322 35.2766 5.63897 37.6182 8.19769 39.4826C10.7564 41.3459 13.7837 42.7359 17.2797 43.6514C19.5482 44.2464 21.9549 44.6277 24.4725 44.8355V41.293C22.1216 41.0695 19.9531 40.6863 18.0169 40.0982C14.8974 39.1503 12.3005 37.8339 10.2241 36.1499C8.14769 34.4649 6.59874 32.4595 5.57722 30.1325C4.55471 27.8055 4.04394 25.2638 4.04394 22.5055C4.04394 19.5571 4.56549 16.9037 5.60858 14.5453C6.65168 12.1879 8.2173 10.1864 10.3035 8.54356C12.3897 6.90075 15.0023 5.63727 18.1433 4.75313C20.0482 4.21696 22.1745 3.86311 24.4744 3.65139V0.158936C23.2755 0.260876 22.0971 0.404971 20.9452 0.59905C18.5002 1.01269 16.2199 1.62335 14.1043 2.43398Z" fill="#D3A188"/>
<path d="M49.2918 26.4487C49.2918 26.4448 49.2918 26.4409 49.2918 26.437C48.3624 26.2703 47.4115 26.1272 46.4341 26.0135C44.8665 25.8312 43.1715 25.744 41.3784 25.7273V29.157C41.396 29.157 41.4127 29.155 41.4294 29.155C42.798 29.155 44.1067 29.2217 45.3606 29.3521V39.4187C44.5381 39.6706 43.5371 39.9186 42.3568 40.1607C41.1765 40.4028 39.8697 40.6234 38.4364 40.8234C37.0031 41.0243 35.4796 41.187 33.8679 41.3135C32.3004 41.437 30.7181 41.4977 29.1211 41.5007V45C30.9475 44.9892 32.7072 44.9225 34.3826 44.7873C36.2041 44.6402 37.9629 44.4236 39.6579 44.1394C41.3529 43.8561 42.995 43.5032 44.5851 43.0817C46.1753 42.6612 47.7497 42.177 49.3085 41.6291V26.4487H49.2918V26.4487Z" fill="#D3A188"/>
<path d="M72.5475 1.62354H67.8496V21.3324H72.5475V1.62354Z" fill="#D3A188"/>
<path d="M78.8496 1.62354H84.3337L96.6469 16.106V1.62354H101.226V21.3324H95.742L83.4298 6.87741V21.3324H78.8496V1.62354Z" fill="#D3A188"/>
<path d="M107.529 1.62354H124.305V4.83564H112.226V10.1718H122.35V13.383H112.226V21.3324H107.529V1.62354Z" fill="#D3A188"/>
<path d="M128.682 1.62354H137.638C143.97 1.62354 147.5 3.66529 147.5 7.53022C147.5 10.3346 145.546 12.1862 142.103 13.0566C142.803 13.3565 143.387 13.8466 144 14.5004L149.951 21.3324H144.088L138.836 15.2071C137.816 14.0093 137.377 13.7917 135.248 13.7917H133.38V21.3324H128.684V1.62354H128.682ZM133.378 4.83564V10.6071H137.142C141.081 10.6071 142.568 9.49062 142.568 7.58511C142.568 5.76096 140.848 4.83564 137.142 4.83564H133.378Z" fill="#D3A188"/>
<path d="M161.562 1.62354H166.464L177.551 21.3324H172.27L169.995 17.2499H157.946L155.699 21.3324H150.477L161.562 1.62354ZM159.696 13.8466H168.274L163.985 5.87073L159.696 13.8466Z" fill="#D3A188"/>
<path d="M186.423 11.4775C186.423 5.1346 191.033 1.29712 198.559 1.29712C201.069 1.29712 204.278 1.62353 206.116 2.35868V4.78174C204.015 3.9917 201.098 3.69371 198.997 3.69371C192.872 3.69371 189.486 6.25204 189.486 11.4785C189.486 17.1411 193.308 19.2916 198.852 19.2916C201.799 19.2916 203.928 18.829 204.891 18.5565V11.8323H207.866V20.4071C205.503 21.1962 202.323 21.6588 198.413 21.6588C191.003 21.6588 186.423 18.0389 186.423 11.4775Z" fill="#D3A188"/>
<path d="M213.527 13.9005V1.62354H216.531V13.6829C216.531 17.3587 218.777 19.3191 223.183 19.3191C227.617 19.3191 229.863 17.3587 229.863 13.6829V1.62354H232.869V13.9005C232.869 18.7457 229.047 21.6588 223.182 21.6588C217.232 21.6588 213.527 18.7466 213.527 13.9005Z" fill="#D3A188"/>
<path d="M239.524 1.62354H242.528V19.0456H254.521V21.3324H239.524V1.62354Z" fill="#D3A188"/>
<path d="M259.188 1.62354H275V3.91033H262.192V10.6619H273.161V12.9478H262.192V21.3324H259.188V1.62354Z" fill="#D3A188"/>
<path d="M67.8496 32.0017H69.1917L69.3045 32.729C70.1123 32.1958 71.3416 31.8076 72.6337 31.8076C75.5601 31.8076 77.4355 33.3759 77.4355 36.1391C77.4355 38.8376 75.6238 40.4873 72.5376 40.4873C71.3406 40.4873 70.2093 40.2128 69.4495 39.711V43.7033H67.8486V32.0017H67.8496ZM75.7875 36.1391C75.7875 34.0866 74.5582 33.0348 72.3112 33.0348C71.2112 33.0348 70.2426 33.3416 69.4495 33.8435V38.4181C70.2426 38.919 71.2112 39.2267 72.3112 39.2267C74.5582 39.2267 75.7875 38.1916 75.7875 36.1391Z" fill="#D3A188"/>
<path d="M80.3926 32.0013H81.8327L81.9611 33.505C82.5268 32.6483 83.4817 31.8406 85.0826 31.8406C85.6796 31.8406 86.1972 31.9209 86.5531 32.0503V33.4726C86.0835 33.3432 85.5022 33.2785 84.8875 33.2785C83.1581 33.2785 82.3503 34.297 81.9945 34.8949V40.2938H80.3936V32.0013H80.3926Z" fill="#D3A188"/>
<path d="M87.9102 36.1391C87.9102 33.6818 89.4611 31.8076 92.905 31.8076C96.397 31.8076 97.8999 33.6661 97.8999 36.1558C97.8999 38.6122 96.349 40.4873 92.905 40.4873C89.414 40.4873 87.9102 38.6288 87.9102 36.1391ZM96.251 36.1558C96.251 34.2807 95.201 33.0515 92.905 33.0515C90.61 33.0515 89.5591 34.264 89.5591 36.1391C89.5591 38.0142 90.61 39.2424 92.905 39.2424C95.201 39.2424 96.251 38.0299 96.251 36.1558Z" fill="#D3A188"/>
<path d="M100.857 32.0017H102.2L102.312 32.729C103.12 32.1958 104.348 31.8076 105.642 31.8076C108.567 31.8076 110.442 33.3759 110.442 36.1391C110.442 38.8376 108.632 40.4873 105.544 40.4873C104.347 40.4873 103.215 40.2128 102.457 39.711V43.7033H100.856V32.0017H100.857ZM108.794 36.1391C108.794 34.0866 107.566 33.0348 105.319 33.0348C104.22 33.0348 103.249 33.3416 102.458 33.8435V38.4181C103.249 38.919 104.22 39.2267 105.319 39.2267C107.566 39.2267 108.794 38.1916 108.794 36.1391Z" fill="#D3A188"/>
<path d="M112.642 36.0264C112.642 33.6504 114.323 31.8076 117.266 31.8076C120.159 31.8076 121.84 33.5043 121.84 35.849C121.84 36.0587 121.823 36.3332 121.808 36.4792H114.243C114.355 38.1279 115.454 39.1944 117.685 39.1944C119.286 39.1944 120.305 38.8386 121.274 38.4514V39.7286C120.337 40.1648 119.173 40.4883 117.507 40.4883C114.243 40.4873 112.642 38.6121 112.642 36.0264ZM114.257 35.2501H120.272C120.127 33.9405 118.897 33.0358 117.266 33.0358C115.633 33.0358 114.388 33.9405 114.257 35.2501Z" fill="#D3A188"/>
<path d="M124.7 32.0013H126.138L126.269 33.505C126.833 32.6483 127.787 31.8406 129.388 31.8406C129.985 31.8406 130.505 31.9209 130.859 32.0503V33.4726C130.389 33.3432 129.81 33.2785 129.195 33.2785C127.466 33.2785 126.656 34.297 126.302 34.8949V40.2938H124.701V32.0013H124.7Z" fill="#D3A188"/>
<path d="M132.021 32.0016H133.88L134.073 29.9333H135.399V32.0016H139.393V33.2631H135.399V37.675C135.399 38.8228 135.981 39.1943 137.308 39.1943C138.051 39.1943 138.728 39.0492 139.262 38.8385V40.0833C138.663 40.3097 137.84 40.4872 136.821 40.4872C134.816 40.4872 133.816 39.7442 133.816 37.8847V33.2621H132.021V32.0016V32.0016Z" fill="#D3A188"/>
<path d="M141.962 28.5903H143.563V30.3361H141.962V28.5903V28.5903ZM141.962 32.0014H143.563V40.2929H141.962V32.0014V32.0014Z" fill="#D3A188"/>
<path d="M146.521 36.0264C146.521 33.6504 148.203 31.8076 151.146 31.8076C154.039 31.8076 155.72 33.5043 155.72 35.849C155.72 36.0587 155.704 36.3332 155.688 36.4792H148.122C148.235 38.1279 149.334 39.1944 151.565 39.1944C153.166 39.1944 154.185 38.8386 155.155 38.4514V39.7286C154.217 40.1648 153.053 40.4883 151.387 40.4883C148.121 40.4873 146.521 38.6121 146.521 36.0264ZM148.137 35.2501H154.152C154.006 33.9405 152.777 33.0358 151.146 33.0358C149.512 33.0358 148.267 33.9405 148.137 35.2501Z" fill="#D3A188"/>
<path d="M158.013 39.8884V38.6602C158.725 38.919 160.196 39.2101 161.392 39.2101C163.364 39.2101 164.303 38.7896 164.303 38.0299C164.303 37.2213 163.429 37.0605 161.844 36.7527C159.307 36.2842 158.125 35.7823 158.125 34.215C158.125 32.7447 159.355 31.8066 162.265 31.8066C163.591 31.8066 164.69 32.0654 165.402 32.4203V33.6651C164.642 33.3416 163.51 33.0829 162.265 33.0829C160.471 33.0829 159.759 33.4544 159.759 34.1983C159.759 35.007 160.632 35.1521 162.217 35.4599C164.739 35.9284 165.934 36.4449 165.934 38.0133C165.934 39.4836 164.367 40.4863 161.392 40.4863C160.083 40.4873 158.725 40.2128 158.013 39.8884Z" fill="#D3A188"/>
</svg>
