<svg width="17" height="17" viewBox="0 0 17 17" fill="none" xmlns="http://www.w3.org/2000/svg">
<g clip-path="url(#clip0_212_512)">
<path d="M10.2717 15.3377V11.3642C10.2717 11.1885 10.2019 11.0201 10.0777 10.8959C9.95348 10.7717 9.78503 10.7019 9.60939 10.7019H6.96035C6.78471 10.7019 6.61626 10.7717 6.49206 10.8959C6.36786 11.0201 6.29809 11.1885 6.29809 11.3642V15.3377C6.29809 15.5134 6.22831 15.6818 6.10412 15.806C5.97992 15.9302 5.81147 16 5.63583 16H1.66226C1.48662 16 1.31817 15.9302 1.19397 15.806C1.06977 15.6818 1 15.5134 1 15.3377V7.68035C1.00148 7.5887 1.02129 7.49827 1.05825 7.41439C1.09522 7.3305 1.14859 7.25487 1.21523 7.19193L7.83784 1.17363C7.95993 1.06194 8.1194 1 8.28487 1C8.45034 1 8.60981 1.06194 8.7319 1.17363L15.3545 7.19193C15.4211 7.25487 15.4745 7.3305 15.5115 7.41439C15.5485 7.49827 15.5683 7.5887 15.5697 7.68035V15.3377C15.5697 15.5134 15.5 15.6818 15.3758 15.806C15.2516 15.9302 15.0831 16 14.9075 16H10.9339C10.7583 16 10.5898 15.9302 10.4656 15.806C10.3414 15.6818 10.2717 15.5134 10.2717 15.3377Z" stroke="white" stroke-linecap="round" stroke-linejoin="round"/>
</g>
<defs>
<clipPath id="clip0_212_512">
<rect width="17" height="17" fill="white"/>
</clipPath>
</defs>
</svg>
