<svg width="13" height="16" viewBox="0 0 13 16" fill="none" xmlns="http://www.w3.org/2000/svg">
<g clip-path="url(#clip0_212_519)">
<path d="M6.50005 8.70005C7.71507 8.70005 8.70005 7.71507 8.70005 6.50005C8.70005 5.28502 7.71507 4.30005 6.50005 4.30005C5.28502 4.30005 4.30005 5.28502 4.30005 6.50005C4.30005 7.71507 5.28502 8.70005 6.50005 8.70005Z" stroke="#828282" stroke-linecap="round" stroke-linejoin="round"/>
<path d="M12 6.5C12 11.45 6.5 15.3 6.5 15.3C6.5 15.3 1 11.45 1 6.5C1 5.04131 1.57946 3.64236 2.61091 2.61091C3.64236 1.57946 5.04131 1 6.5 1C7.95869 1 9.35764 1.57946 10.3891 2.61091C11.4205 3.64236 12 5.04131 12 6.5Z" stroke="#828282" stroke-linecap="round" stroke-linejoin="round"/>
</g>
<defs>
<clipPath id="clip0_212_519">
<rect width="13" height="16" fill="white"/>
</clipPath>
</defs>
</svg>
