<svg width="281" height="46" viewBox="0 0 281 46" fill="none" xmlns="http://www.w3.org/2000/svg">
<path d="M25.6777 7.35558V41.5577C27.5077 41.5577 28.9917 40.0809 28.9917 38.2606V4.05847C27.1617 4.05748 25.6777 5.53436 25.6777 7.35558Z" fill="#D3A188"/>
<path d="M20.1924 37.3967C22.0004 37.3967 23.4654 36.3199 23.4654 34.9933V10.0665C21.6574 10.0665 20.1924 11.1423 20.1924 12.4699V37.3967Z" fill="#D3A188"/>
<path d="M35.6761 3.93006C37.5141 4.23061 39.2341 4.63666 40.8351 5.14919C42.4371 5.66272 43.9311 6.26183 45.3171 6.94454C46.7031 7.62924 48.0091 8.35573 49.2351 9.12601V4.25151C47.6881 3.6106 46.1521 3.02841 44.6271 2.50394C43.1021 1.98046 41.5341 1.53162 39.9221 1.15643C38.3111 0.783228 36.6241 0.494624 34.8631 0.290607C33.2641 0.106494 31.5341 0.0179137 29.7051 0V3.48222C29.7241 3.48222 29.7401 3.48122 29.7571 3.48122C31.8661 3.48122 33.8381 3.6315 35.6761 3.93006Z" fill="#D3A188"/>
<path d="M14.387 2.47112C12.228 3.29415 10.262 4.33713 8.49001 5.59805C6.71801 6.85997 5.20301 8.33985 3.94801 10.0397C2.69101 11.7395 1.71901 13.6522 1.03101 15.779C0.343006 17.9067 0 20.2634 0 22.8509C0 26.7192 0.742 30.087 2.223 32.9522C3.705 35.8164 5.752 38.1939 8.362 40.0868C10.972 41.9787 14.06 43.3899 17.626 44.3194C19.94 44.9235 22.395 45.3107 24.963 45.5216V41.925C22.565 41.6981 20.353 41.3089 18.378 40.7118C15.196 39.7495 12.547 38.4129 10.429 36.7031C8.311 34.9924 6.731 32.9562 5.689 30.5936C4.646 28.231 4.125 25.6504 4.125 22.8499C4.125 19.8563 4.657 17.1623 5.721 14.7679C6.785 12.3744 8.382 10.3422 10.51 8.67423C12.638 7.00626 15.303 5.72344 18.507 4.82577C20.45 4.28139 22.619 3.92213 24.965 3.70717V0.161255C23.742 0.264756 22.54 0.411056 21.365 0.608106C18.871 1.02808 16.545 1.64809 14.387 2.47112Z" fill="#D3A188"/>
<path d="M50.2801 26.8536C50.2801 26.8496 50.2801 26.8456 50.2801 26.8416C49.3321 26.6724 48.3621 26.5271 47.3651 26.4117C45.7661 26.2266 44.0371 26.138 42.2081 26.1211V29.6033C42.2261 29.6033 42.2431 29.6013 42.2601 29.6013C43.6561 29.6013 44.9911 29.669 46.2701 29.8014V40.0221C45.4311 40.2779 44.4101 40.5296 43.2061 40.7755C42.0021 41.0213 40.6691 41.2452 39.2071 41.4482C37.7451 41.6522 36.1911 41.8174 34.5471 41.9458C32.9481 42.0712 31.3341 42.1329 29.7051 42.1359V45.6888C31.5681 45.6778 33.3631 45.6102 35.0721 45.4728C36.9301 45.3235 38.7241 45.1036 40.4531 44.815C42.1821 44.5274 43.8571 44.1691 45.4791 43.7412C47.1011 43.3142 48.7071 42.8226 50.2971 42.2663V26.8536H50.2801V26.8536Z" fill="#D3A188"/>
<path d="M74.002 1.64807H69.21V21.6586H74.002V1.64807Z" fill="white"/>
<path d="M80.4297 1.64807H86.0237L98.5837 16.3522V1.64807H103.255V21.6586H97.6607L85.1017 6.98236V21.6586H80.4297V1.64807Z" fill="white"/>
<path d="M109.685 1.64807H126.797V4.90935H114.476V10.3272H124.803V13.5875H114.476V21.6586H109.685V1.64807Z" fill="white"/>
<path d="M131.261 1.64807H140.397C146.856 1.64807 150.457 3.72108 150.457 7.64517C150.457 10.4924 148.463 12.3724 144.951 13.2561C145.665 13.5607 146.261 14.0583 146.886 14.7221L152.957 21.6586H146.976L141.619 15.4396C140.578 14.2235 140.131 14.0025 137.959 14.0025H136.054V21.6586H131.263V1.64807H131.261ZM136.052 4.90935V10.7691H139.891C143.909 10.7691 145.426 9.63557 145.426 7.7009C145.426 5.84883 143.671 4.90935 139.891 4.90935H136.052Z" fill="white"/>
<path d="M164.801 1.64807H169.801L181.11 21.6586H175.723L173.403 17.5136H161.112L158.82 21.6586H153.493L164.801 1.64807ZM162.897 14.0583H171.647L167.272 5.96028L162.897 14.0583Z" fill="white"/>
<path d="M190.159 11.6528C190.159 5.21287 194.862 1.31665 202.538 1.31665C205.099 1.31665 208.372 1.64806 210.247 2.39446V4.85461C208.104 4.05247 205.128 3.74993 202.985 3.74993C196.737 3.74993 193.284 6.34741 193.284 11.6538C193.284 17.4031 197.182 19.5866 202.837 19.5866C205.843 19.5866 208.015 19.1169 208.997 18.8402V12.0131H212.032V20.7191C209.622 21.5203 206.378 21.99 202.389 21.99C194.831 21.99 190.159 18.3147 190.159 11.6528Z" fill="white"/>
<path d="M217.807 14.113V1.64807H220.871V13.8921C220.871 17.6241 223.162 19.6145 227.656 19.6145C232.179 19.6145 234.47 17.6241 234.47 13.8921V1.64807H237.536V14.113C237.536 19.0323 233.638 21.99 227.655 21.99C221.586 21.99 217.807 19.0333 217.807 14.113Z" fill="white"/>
<path d="M244.325 1.64807H247.389V19.3368H259.622V21.6586H244.325V1.64807Z" fill="white"/>
<path d="M264.383 1.64807H280.512V3.96987H267.448V10.8248H278.637V13.1457H267.448V21.6586H264.383V1.64807Z" fill="white"/>
<path d="M69.21 32.4914H70.579L70.694 33.2299C71.518 32.6885 72.772 32.2944 74.09 32.2944C77.075 32.2944 78.988 33.8867 78.988 36.6922C78.988 39.432 77.14 41.1069 73.992 41.1069C72.771 41.1069 71.617 40.8282 70.842 40.3187V44.3721H69.209V32.4914H69.21ZM77.307 36.6922C77.307 34.6082 76.053 33.5404 73.761 33.5404C72.639 33.5404 71.651 33.8519 70.842 34.3614V39.006C71.651 39.5146 72.639 39.8271 73.761 39.8271C76.053 39.8271 77.307 38.7761 77.307 36.6922Z" fill="white"/>
<path d="M82.0039 32.4914H83.4729L83.6039 34.018C84.1809 33.1482 85.1549 32.3282 86.7879 32.3282C87.3969 32.3282 87.9249 32.4098 88.2879 32.5411V33.9852C87.8089 33.8538 87.2159 33.7881 86.5889 33.7881C84.8249 33.7881 84.0009 34.8222 83.6379 35.4292V40.9108H82.0049V32.4914H82.0039Z" fill="white"/>
<path d="M89.6719 36.6922C89.6719 34.1972 91.2539 32.2944 94.7669 32.2944C98.3289 32.2944 99.8619 34.1813 99.8619 36.7091C99.8619 39.2031 98.2799 41.1069 94.7669 41.1069C91.2059 41.1069 89.6719 39.22 89.6719 36.6922ZM98.1799 36.7091C98.1799 34.8053 97.1089 33.5573 94.7669 33.5573C92.4259 33.5573 91.3539 34.7883 91.3539 36.6922C91.3539 38.596 92.4259 39.843 94.7669 39.843C97.1089 39.843 98.1799 38.6119 98.1799 36.7091Z" fill="white"/>
<path d="M102.879 32.4914H104.248L104.363 33.2299C105.187 32.6885 106.44 32.2944 107.759 32.2944C110.743 32.2944 112.656 33.8867 112.656 36.6922C112.656 39.432 110.809 41.1069 107.659 41.1069C106.439 41.1069 105.284 40.8282 104.511 40.3187V44.3721H102.878V32.4914H102.879ZM110.975 36.6922C110.975 34.6082 109.722 33.5404 107.43 33.5404C106.309 33.5404 105.319 33.8519 104.512 34.3614V39.006C105.319 39.5146 106.309 39.8271 107.43 39.8271C109.722 39.8271 110.975 38.7761 110.975 36.6922Z" fill="white"/>
<path d="M114.899 36.5777C114.899 34.1653 116.614 32.2944 119.616 32.2944C122.567 32.2944 124.282 34.0171 124.282 36.3976C124.282 36.6106 124.264 36.8892 124.249 37.0375H116.532C116.647 38.7114 117.768 39.7942 120.044 39.7942C121.677 39.7942 122.716 39.433 123.704 39.0399V40.3366C122.749 40.7795 121.561 41.1079 119.862 41.1079C116.532 41.1069 114.899 39.2031 114.899 36.5777ZM116.547 35.7895H122.682C122.534 34.4599 121.28 33.5414 119.616 33.5414C117.95 33.5414 116.68 34.4599 116.547 35.7895Z" fill="white"/>
<path d="M127.2 32.4914H128.667L128.8 34.018C129.376 33.1482 130.349 32.3282 131.982 32.3282C132.591 32.3282 133.121 32.4098 133.482 32.5411V33.9852C133.003 33.8538 132.412 33.7881 131.785 33.7881C130.021 33.7881 129.195 34.8222 128.834 35.4292V40.9108H127.201V32.4914H127.2Z" fill="white"/>
<path d="M134.668 32.4914H136.564L136.761 30.3915H138.113V32.4914H142.187V33.7722H138.113V38.2517C138.113 39.417 138.707 39.7942 140.06 39.7942C140.818 39.7942 141.509 39.6469 142.054 39.433V40.6969C141.443 40.9268 140.603 41.1069 139.564 41.1069C137.519 41.1069 136.498 40.3525 136.498 38.4646V33.7712H134.668V32.4914V32.4914Z" fill="white"/>
<path d="M144.807 29.0281H146.44V30.8005H144.807V29.0281V29.0281ZM144.807 32.4914H146.44V40.9098H144.807V32.4914V32.4914Z" fill="white"/>
<path d="M149.458 36.5777C149.458 34.1653 151.173 32.2944 154.175 32.2944C157.126 32.2944 158.841 34.0171 158.841 36.3976C158.841 36.6106 158.825 36.8892 158.808 37.0375H151.091C151.206 38.7114 152.327 39.7942 154.603 39.7942C156.236 39.7942 157.275 39.433 158.265 39.0399V40.3366C157.308 40.7795 156.12 41.1079 154.421 41.1079C151.09 41.1069 149.458 39.2031 149.458 36.5777ZM151.106 35.7895H157.241C157.093 34.4599 155.839 33.5414 154.175 33.5414C152.508 33.5414 151.239 34.4599 151.106 35.7895Z" fill="white"/>
<path d="M161.18 40.4988V39.2518C161.907 39.5145 163.407 39.8101 164.627 39.8101C166.639 39.8101 167.596 39.3832 167.596 38.6119C167.596 37.7908 166.705 37.6276 165.088 37.3151C162.5 36.8394 161.295 36.3299 161.295 34.7386C161.295 33.2457 162.549 32.2933 165.518 32.2933C166.87 32.2933 167.991 32.5561 168.717 32.9163V34.1802C167.942 33.8518 166.787 33.5891 165.518 33.5891C163.688 33.5891 162.961 33.9663 162.961 34.7216C162.961 35.5427 163.852 35.69 165.469 36.0025C168.041 36.4782 169.26 37.0026 169.26 38.595C169.26 40.0878 167.662 41.1059 164.627 41.1059C163.292 41.1069 161.907 40.8282 161.18 40.4988Z" fill="white"/>
</svg>
