<svg width="1323" height="975" viewBox="0 0 1323 975" fill="none" xmlns="http://www.w3.org/2000/svg">
<path d="M675.784 114.98L675.723 114.941L675.654 114.921L653.509 108.389L646.87 94.4183L670.199 85.091L670.468 84.9833L670.508 84.6962L675.939 45.9845L707.431 49.9191L718.657 73.809L725.976 100.877L726.016 101.025L726.133 101.125L755.339 126.303L757.695 135.049H740.754H740.525L740.376 135.222L733.561 143.109H719.276L675.784 114.98ZM620.376 106.695L645.773 94.8965C645.791 95.0046 645.812 95.119 645.835 95.2384C645.925 95.7157 646.055 96.3146 646.216 96.9972C646.539 98.3631 646.99 100.077 647.505 101.847C648.02 103.617 648.601 105.449 649.183 107.048C649.673 108.394 650.173 109.6 650.644 110.468L643.36 114.975L643.215 115.065L643.155 115.226L634.821 137.68L608.937 142.996V124.22L611.415 101.576L619.908 106.67L620.136 106.807L620.376 106.695Z" fill="black" stroke="white"/>
<path d="M605.012 124.11L605.005 124.151V124.192V142.265L598.967 135.277L593.95 124.176L598.971 110.915L607.868 102.021C607.727 103.819 607.382 106.951 606.942 110.484C606.365 115.115 605.633 120.383 605.012 124.11Z" fill="black" stroke="white"/>
<path d="M755.467 151.696L738.353 143.485L743.792 138.687L757.738 143.914L755.467 151.696Z" fill="black" stroke="white"/>
<path d="M643.624 49.9571H643.639L643.654 49.9562L672.722 48.1628L667.362 82.0837L641.586 93.696V93.6959L641.577 93.7001L620.184 103.848L614.183 100.516L620.636 82.598L620.702 82.4154L620.627 82.2362L616.962 73.4439L616.833 73.1363H616.5H611.412L608.991 61.0389L625.086 49.9571H643.624Z" fill="black" stroke="white"/>
<path d="M606.006 93.2415V89.1414L611.233 78.6917L615.88 80.8594L613.154 88.6948L606.006 93.2415Z" fill="black" stroke="white"/>
<path d="M722.911 73.5116L722.897 73.4579L722.872 73.4084L705.646 39.7044L705.626 39.6654L705.6 39.6305L692.275 21.992L696.487 16.8104L703.798 22.3785L703.932 22.4807H704.101H716.197H716.227L716.257 22.4771L737.143 19.9576L743.226 34.2659L743.293 34.4233L743.442 34.5067L786.693 58.6857L786.927 58.817L787.166 58.6934L807.636 48.0978L849.538 38.2649L889.664 60.6666L878.841 86.6322L878.744 86.8628L878.871 87.0782L900.806 124.35L902.995 147.685L903.007 147.811L903.077 147.916L921.246 175.158L915.502 187.357L915.478 187.408L915.466 187.462L912.631 200.218L883.516 197.345L858.702 179.472L858.599 179.397L858.472 179.381L820.474 174.635L796.82 158.266L781.842 137.818L781.718 137.648L781.51 137.619L763.768 135.085L756.196 123.912L756.161 123.86L756.114 123.819L729.837 100.474L722.911 73.5116Z" fill="black" stroke="white"/>
<path d="M924.835 175.332L924.958 175.075L924.801 174.838L906.925 148.037L957.066 141.907L957.384 141.868L957.482 141.564L963.632 122.401L986.1 115.88L986.272 115.83L986.374 115.683L1010.2 80.8794L1010.32 80.7046L1010.28 80.4969L1006.68 62.8941L1031.42 48.2043L1068.17 69.2501L1061.66 73.1591L1035.73 77.5395L1035.31 77.6099V78.0325V97.0826V97.3523L1035.54 97.5004L1049.24 106.511V120.059L1035.42 152.044L1001.12 170.645L1000.61 170.922L1000.96 171.386L1022.99 200.624L1005.86 211.326L1005.82 211.348L1005.79 211.374L997.251 218.843L986.375 213.234L982.407 200.609L982.314 200.313L982.008 200.265L963.314 197.335L963.239 197.324L963.164 197.335L943.48 200.248L916.659 192.386L924.835 175.332Z" fill="black" stroke="white"/>
<path d="M1001.35 45.9274H1029.45L1003.68 60.0089L1003.39 60.1693L1003.42 60.5019L1005.6 80.4763L984.544 113.501L960.911 119.679L960.616 119.756L960.549 120.053L956.592 137.671L906.467 145.24L901.785 118.245L901.768 118.148L901.715 118.064C898.714 113.308 894.227 105.876 890.491 99.4151C888.623 96.1842 886.945 93.2 885.735 90.916C885.129 89.7732 884.644 88.8117 884.312 88.0848C884.145 87.7207 884.02 87.4228 883.938 87.1943C883.897 87.0801 883.869 86.9893 883.851 86.9203C883.836 86.8603 883.833 86.8313 883.832 86.8253C883.832 86.8238 883.832 86.8237 883.832 86.8248C883.832 86.6587 883.874 86.3303 883.971 85.8422C884.066 85.3658 884.207 84.7684 884.388 84.0813C884.751 82.7075 885.274 80.9895 885.911 79.1883C887.165 75.6441 888.835 71.8546 890.563 69.7032L919.699 64.9711L919.972 64.9267L920.079 64.6717L928.723 44.1544L963.153 49.9503L963.328 49.9797L963.482 49.8926L980.301 40.3905L997.017 34.7029L1000.88 45.5946L1001 45.9274H1001.35Z" fill="black" stroke="white"/>
<path d="M830.256 210.047L830.412 210.025L830.527 209.918L855.711 186.52V212.347L842.408 234.986L812.85 227.42L799.729 214.304L830.256 210.047Z" fill="black" stroke="white"/>
<path d="M828.218 306.393L813.357 280.223L837.267 274.517L837.436 274.476L837.544 274.34L856.604 250.16L856.849 249.849L856.603 249.539L845.453 235.521L858.561 213.213L897.299 241.535C891.363 249.779 882.622 262.024 875.282 272.488C871.552 277.805 868.183 282.665 865.727 286.306C864.499 288.126 863.498 289.645 862.793 290.766C862.441 291.326 862.159 291.791 861.96 292.148C861.861 292.325 861.779 292.482 861.718 292.612C861.67 292.716 861.617 292.838 861.591 292.954C861.59 292.956 861.589 292.958 861.587 292.959C861.564 292.99 861.519 293.038 861.442 293.104C861.288 293.236 861.052 293.401 860.729 293.596C860.084 293.984 859.154 294.458 857.992 294.998C855.673 296.075 852.484 297.392 848.945 298.778C842.034 301.486 833.818 304.448 828.218 306.393ZM861.599 292.943C861.6 292.942 861.6 292.941 861.6 292.941C861.601 292.94 861.6 292.941 861.599 292.943Z" fill="black" stroke="white"/>
<path d="M789.793 209.787L789.833 209.862L789.896 209.92L809.688 228.237L809.769 228.312L809.873 228.346L842.372 238.929L852.622 249.881L835.398 272.12L809.913 278.16H809.912L795.253 281.604L795.203 281.615L795.157 281.637L758.97 298.441H710.698H698.14L630.501 195.021L608.051 147.249L636.41 140.432L636.662 140.372L636.758 140.132L646.229 116.466L654.323 111.189L675.655 118.417L718.851 147.322L719.007 147.427L719.193 147.402L735.844 145.232L770.05 172.51L789.793 209.787ZM809.819 279.293L824.417 305.056L777.884 344.665L729.819 362.497L713.703 352.116L702.755 306.884L702.753 306.874L702.75 306.864L701.463 302.361L761.289 301.273L761.392 301.271L761.486 301.229L795.573 285.843L795.576 285.841L809.819 279.293Z" fill="black" stroke="white"/>
<path d="M804.092 204.147L795.867 206.677V192.449L804.092 204.147Z" fill="black" stroke="white"/>
<path d="M787.537 191.368V191.979L786.823 191.368H787.537Z" fill="black" stroke="white"/>
<path d="M599.506 164.017L577.636 142.156L576.832 142.727L616.255 224.454L599.812 239.458H491.295L494.564 118.904L535.428 124.687L535.463 124.692H535.498H588.728L599.506 142.648V164.017Z" fill="black" stroke="white"/>
<path d="M599.641 243.024H599.819L599.957 242.912L617.171 228.932L635.793 250.769V274.396C635.793 274.625 635.885 274.861 635.983 275.062C636.088 275.279 636.237 275.524 636.417 275.79C636.778 276.324 637.293 276.981 637.918 277.726C639.172 279.218 640.901 281.095 642.814 283.094C646.495 286.941 650.879 291.261 653.917 294.196L629.333 320.212L629.148 320.408L629.21 320.671L633.936 340.656L605.097 405.873L590.186 377.839L589.793 377.1L589.328 377.796L571.225 404.938L555.471 398.854L555.176 398.74L554.947 398.958L540.152 413.025L500.499 397.027L500.001 396.826L499.836 397.337L492.921 418.761L463.504 348.12L481.636 326.371L481.737 326.251L481.75 326.094L486.146 274.46L491.57 243.024H599.641Z" fill="black" stroke="white"/>
<path d="M633.535 322.522L653.454 298.7L665.555 318.618L665.573 318.648L665.596 318.676L701.824 362.745C696.858 358.974 690.982 354.288 685.441 349.87C684.116 348.813 682.81 347.772 681.541 346.762C677.638 343.658 674.077 340.851 671.363 338.819C670.006 337.804 668.854 336.977 667.973 336.403C667.533 336.116 667.152 335.886 666.841 335.726C666.686 335.646 666.54 335.579 666.407 335.531C666.283 335.486 666.133 335.443 665.982 335.443C665.436 335.443 663.873 335.585 661.74 335.807C659.591 336.03 656.826 336.34 653.847 336.683C648.087 337.348 641.522 338.14 637.051 338.688L633.535 322.522Z" fill="black" stroke="white"/>
<path d="M704.009 387.88L694.852 378.388L702.086 368.059L713.266 372.46L704.009 387.88Z" fill="black" stroke="white"/>
<path d="M706.965 389.754L714.069 380.623L728.7 393.107L728.9 393.278L729.155 393.21L801.928 373.569L805.109 392.652L794.187 415.211L756.477 484.009L696.945 542.786L684.485 512.895L698.982 480.296L738.025 462.789L738.135 462.74L738.21 462.646L768.265 425.279L768.747 424.679L768.004 424.482L732.214 414.992L706.965 389.754Z" fill="black" stroke="white"/>
<path d="M569.306 496.249L569.353 496.149V496.038V481.818L604.44 476.808L613.762 502.609L598.197 536.622L563.265 542.741L555.114 526.801L569.306 496.249Z" fill="black" stroke="white"/>
<path d="M565.179 572.221L565.302 572.095L565.318 571.919L567.847 545.182L597.734 539.424L649.472 565.645L661.822 592.874L664.016 633.811L664.019 633.872L664.037 633.929L673.426 664.969L638.459 676.499L612.856 671.453L606.347 650.854L606.265 650.593L606 650.521L587.086 645.431L559.77 614.853L551.454 586.3L565.179 572.221Z" fill="black" stroke="white"/>
<path d="M521.57 758.11H521.777L521.924 757.964L550.244 729.657L591.372 752.735L578.68 808.192L565.844 814.607L541.61 810.269L517.568 785.512L500.836 758.11H521.57Z" fill="black" stroke="white"/>
<path d="M579.272 873.878L576.81 891.105L527.107 945.533L493.928 967.761H454.862H454.798L454.736 967.777L429.756 974.292L413.616 954.575L416.5 940.519L416.537 940.338L416.446 940.175L391.938 896.224H402.675L415.749 904.211L415.996 904.362L416.25 904.222L434.943 893.965L435.203 893.823V893.527V851.085L440.091 855.664L442.269 875.265L442.333 875.842L442.895 875.692L464.887 869.83L465.21 869.744L465.253 869.412L467.03 855.925H476.752L493.885 863.213L494.272 863.378L494.5 863.024L505.806 845.527L516.716 838.258L516.759 838.23L516.795 838.193L541.532 813.103L566.202 817.75L571.246 858.076L558.357 864.875L558.09 865.016V865.317V877.407V877.767L558.432 877.881L571.627 882.277L572.061 882.422L572.244 882.002L575.777 873.878H579.272Z" fill="black" stroke="white"/>
<path d="M560.556 875.606V866.735L571.441 861.634L574.178 872.912L569.766 879.356L560.556 875.606Z" fill="black" stroke="white"/>
<path d="M672.356 594.469L667.949 598.874V593.014L670.891 590.955L672.356 594.469Z" fill="black" stroke="white"/>
<path d="M672.447 608.067V616.649L665.466 611.256L667.374 605.215L672.447 608.067Z" fill="black" stroke="white"/>
<path d="M616.226 501.367L616.307 501.18L616.235 500.989L606.487 475.369L626.772 463.277L661.708 482.553L661.9 482.659L662.107 482.59L690.456 473.145L697.608 478.252L681.655 512.679L681.564 512.875L681.645 513.076L694.37 544.692L662.082 589.157L651.785 562.897L651.714 562.715L651.537 562.629L600.291 537.926L616.226 501.367Z" fill="black" stroke="white"/>
<path d="M577.033 78.5534L559.961 74.2875L584.256 65.7556L577.033 78.5534Z" fill="black" stroke="white"/>
<path d="M512.54 58.5882L516.254 57.1031L512.54 62.7962V58.5882Z" fill="black" stroke="white"/>
<path d="M703.319 13.4673L711.657 21.4808H706.866L700.492 15.4448L703.319 13.4673Z" fill="black" stroke="white"/>
<path d="M1308.68 154.367L1321.98 166.263L1296.5 183.124L1296.33 183.238L1296.29 183.439L1285.84 233.495L1271.32 220.016L1276.37 201.626L1276.54 200.993H1275.89H1264.89H1264.77L1264.66 201.049L1255.78 205.664L1230.37 186.076L1229.95 185.752L1229.66 186.192L1221.96 197.549L1221.76 197.835L1221.96 198.117L1237.61 220.296L1235.81 231.085L1235.77 231.277L1235.88 231.441L1241.04 239.349L1212.3 250.483L1211.91 250.634L1211.98 251.045L1214.49 263.916L1196.06 276.918L1195.99 276.971L1195.94 277.046L1189.74 286.154L1146.9 324.948L1146.77 325.062L1146.74 325.228L1129.61 418.118L1106.56 412.092L1059.01 283.413L1054.62 264.028V264.013V263.999L1048.02 241.285L1047.76 240.385L1047.15 241.104L1034.22 256.546L1005.68 241.404L1022.5 231.599L1023.3 231.133L1022.47 230.72L1001.23 220.102L1026.93 201.901L1027.35 201.608L1027.05 201.198L1005.39 171.615L1036.78 154.305L1036.92 154.231L1036.99 154.095L1051.28 126.253L1051.32 126.183L1051.33 126.105L1054.63 105.956L1054.68 105.626L1054.4 105.45L1039.24 96.0713V79.9224L1063.38 75.9614L1063.53 75.9372L1063.64 75.8355L1072.95 67.2432L1098.66 75.8097L1093.23 112.396L1093.18 112.689L1093.42 112.868L1120.34 133.234V147.639V147.963L1120.64 148.095L1200.91 183.997L1200.96 184.019L1201.01 184.03L1214.94 186.962L1215.25 187.026L1215.44 186.777L1222.77 177.252L1222.93 177.046L1222.85 176.798L1219.09 164.848L1226.09 166.757L1237.72 183.823L1237.89 184.079L1238.2 184.036L1262.02 180.74L1262.46 180.68V180.244V171.739L1271.01 166.755L1271.1 166.7L1271.16 166.611L1279.81 154.367H1308.68Z" fill="black" stroke="white"/>
<path d="M542.304 415.55L542.611 415.653L542.831 415.415L555.415 401.758L573.046 409.669L573.445 409.848L573.675 409.477L589.364 384.176L603.808 409.177L599.678 414.681L587.322 420.857L586.67 421.183L587.208 421.673L608.065 440.691L623.837 461.83L604.231 473.945L570.107 479.024L555.621 466.355L555.42 466.179L555.162 466.248L534.954 471.657L495.37 421.201L501.371 401.792L542.304 415.55Z" fill="black" stroke="white"/>
<path d="M359.287 585.668L359.123 585.638L358.974 585.713L344.03 593.181L335.629 576.034L344.123 568.959L344.447 568.69L344.235 568.325L340.447 561.783L348.711 556.619H362.863H363.075L363.222 556.467L374.584 544.743L374.82 544.5L374.681 544.19L366.696 526.415L369.569 517.438L369.65 517.184L369.485 516.975L357.664 502.032H376.424H376.473L376.522 502.022L391.184 499.093L391.426 499.044L391.535 498.822L399.827 481.883H421.278L414.428 520.801L390.684 573.742L371.173 587.828L359.287 585.668Z" fill="black" stroke="white"/>
<path d="M337.706 499.535L354.168 501.637L366.704 517.387L363.852 526.292L363.794 526.474L363.872 526.649L371.801 544.297L362.308 554.488L349.37 552.692L349.17 552.664L349.007 552.783L336.912 561.575L336.498 561.876L336.809 562.283L341.277 568.123L334.71 573.373L308.801 542.441L316.698 513.023H337.206H337.706V512.523V499.535Z" fill="black" stroke="white"/>
<path d="M334.873 509.826H317.914V499.835H334.873V509.826Z" fill="black" stroke="white"/>
<path d="M287.044 516.456L287.972 519.244L282.909 520.974L281.979 518.185L287.044 516.456Z" fill="black" stroke="white"/>
<path d="M304.49 480.921L305.419 483.709L300.355 485.437L299.425 482.65L304.49 480.921Z" fill="black" stroke="white"/>
<path d="M365.365 403.239L383.018 433.125L374.423 436.218L374.164 436.311L374.104 436.58L369.339 458.196L369.293 458.409L369.416 458.588L391.992 491.344L389.989 496.681L376.758 498.468H355.912L318.836 496.651L303.686 464.924L318.824 439.708L333.99 437.181L334.079 437.166L334.157 437.122L348.818 428.696L349.007 428.588L349.056 428.375L353.44 409.384L372.701 371.238L381.301 393.246L365.541 402.554L365.11 402.808L365.365 403.239Z" fill="black" stroke="white"/>
<path d="M385.77 431.979L369.046 403.169L384.003 394.627L384.384 394.409L384.218 394.003L361.244 337.872L384.131 311.727L384.231 311.614L384.251 311.464L389.016 275.561L389.029 275.462L389.003 275.366L378.072 234.581L383.926 227.355L406.648 234.926L483.294 275.783L479.665 324.744L459.987 346.599L459.777 346.832L459.896 347.123L474.025 381.52L385.77 431.979Z" fill="black" stroke="white"/>
<path d="M604.267 415.519L604.425 415.438L604.497 415.275L636.636 342.265L665.477 338.662L700.099 364.616L689.776 378.136L689.504 378.492L689.828 378.801L728.314 415.436L728.401 415.519L728.517 415.554L763.721 425.966L735.676 460.827L700.833 476.425L690.426 470.327L690.232 470.214L690.019 470.283L661.999 479.377L627.439 460.832L591.294 422.177L604.267 415.519Z" fill="black" stroke="white"/>
<path d="M760.831 715.891L760.89 715.85L760.935 715.795L782.282 689.48L790.815 726.442L752.033 836.883L740.541 854.113L707.534 844.79V807.954L724.308 783.168L724.408 783.02L724.391 782.842L720.753 743.567L760.831 715.891Z" fill="black" stroke="white"/>
<path d="M639.138 679.704L639.255 679.725L639.369 679.691L674.397 669.223L683.048 711.73L664.537 743.29L632.438 756.415L632.313 756.466L632.231 756.572L602.543 795.039L602.345 795.296L602.499 795.581L618.109 824.611L606.978 839.684L579.912 860.157L579.714 860.307V860.556V871.412H575.895L569.387 816.128L580.465 809.698L580.646 809.593L580.698 809.389L595.36 751.873L595.454 751.503L595.123 751.315L554.088 727.928L587.137 708.393L602.462 720.503L604.274 738.976L604.318 739.427H604.771H618.699H618.995L619.137 739.168L627.202 724.515L627.331 724.281L627.209 724.044L610.058 690.857L612.874 675.03L639.138 679.704Z" fill="black" stroke="white"/>
<path d="M595.736 674.89L595.749 674.807L595.733 674.724L591.113 649.86L603.654 653.248L611.21 674.826L606.127 691.522L606.064 691.729L606.171 691.917L623.285 721.76L617.976 737.328H607.041L604.535 719.075L604.511 718.901L604.383 718.78L591.01 706.138L595.736 674.89Z" fill="black" stroke="white"/>
<path d="M487.513 673.242L522.812 682.602L546.559 700.494L546.882 700.737L547.188 700.471L558.55 690.581L559.012 690.179L558.525 689.807L540.028 675.669V645.419L565.851 629.287L587.094 649.798L593.627 675.922L587.103 705.269L546.607 728.972L546.557 729.001L546.516 729.04L518.459 755.625L472.052 750.915L460.858 727.092V700.471L483.587 693.981L483.888 693.895L483.942 693.587L487.513 673.242Z" fill="black" stroke="white"/>
<path d="M721.462 695.93V688.87H724.126V695.93H721.462Z" fill="black" stroke="white"/>
<path d="M737.815 709.48L735.541 710.869L732.622 706.095L734.895 704.706L737.815 709.48Z" fill="black" stroke="white"/>
<path d="M725.636 703.218L723.648 702.218L724.023 701.475L726.01 702.475L725.636 703.218Z" fill="black" stroke="white"/>
<path d="M872.847 566.949L872.473 567.692L870.485 566.692L870.858 565.95L872.847 566.949Z" fill="black" stroke="white"/>
<path d="M893.969 563.998L893.232 565.462L889.869 563.771L890.606 562.308L893.969 563.998Z" fill="black" stroke="white"/>
<path d="M882.985 577.673L877.068 574.698L878.53 571.794L884.447 574.769L882.985 577.673Z" fill="black" stroke="white"/>
<path d="M864.653 793.856L863.191 796.76L857.274 793.785L858.737 790.881L864.653 793.856Z" fill="black" stroke="white"/>
<path d="M868.852 791.29L868.204 789.01L873.094 787.62L873.743 789.9L868.852 791.29Z" fill="black" stroke="white"/>
<path d="M878.048 781.723L877.72 780.571L880.566 779.762L880.894 780.914L878.048 781.723Z" fill="black" stroke="white"/>
<path d="M874.294 777.398L871.447 778.206L871.12 777.054L873.965 776.245L874.294 777.398Z" fill="black" stroke="white"/>
<path d="M733.253 699.89L732.105 700.591L730.409 697.818L731.558 697.117L733.253 699.89Z" fill="black" stroke="white"/>
<path d="M443.264 853.916L443.245 853.712L443.09 853.58L435.937 847.502V836.088L445.076 807.22L445.092 807.17L445.097 807.118L449.083 766.903H477.22H477.331L477.431 766.857L497.545 757.523L515.275 787.539L515.304 787.587L515.342 787.628L538.446 812.165L504.379 842.229L504.321 842.281L504.281 842.347L493.509 860.292L477.415 853.5L477.322 853.461H477.22H463.658H463.158V853.961V866.441L445.037 873.406L443.264 853.916Z" fill="black" stroke="white"/>
<path d="M446.431 763.706H445.973L445.933 764.162L441.908 810.257L431.665 838.771L431.636 838.853V838.94V892.494L415.653 901.015L403.797 894.193L403.681 894.126H403.548H388.503L378.74 867.378L363.352 794.509L363.336 794.43L363.296 794.361L339.81 753.915L359.594 749.326L446.375 759.207L446.451 759.215L446.526 759.201L472.843 754.086L492.681 756.103L477.468 763.706H446.431Z" fill="black" stroke="white"/>
<path d="M565.419 553.6L549.461 560.881L547.427 546.309L565.419 544.58V553.6Z" fill="black" stroke="white"/>
<path d="M545.213 573.329L549.439 563.824L563.222 557.625V573.06L549.269 581.777L545.213 573.329Z" fill="black" stroke="white"/>
<path d="M537.197 678.845V679.105L537.41 679.254L554.099 690.968L546.483 697.256L522.242 678.45L522.156 678.384L522.051 678.359L486.498 669.933L486.482 669.929L486.465 669.926L467.029 666.689L459.753 619.787L459.701 619.45L459.368 619.376L432.978 613.514L432.542 613.417L432.397 613.841L427.748 627.424H408.29L398.517 601.734L398.384 601.384L398.011 601.413L347.477 605.411L344.761 595.228L359.265 588.51L371.572 590.682L371.789 590.72L371.963 590.586L392.49 574.833L392.589 574.757L392.64 574.644L416.831 521.523L416.858 521.463L416.869 521.398L425.274 470.627L432.998 462.555L461.274 473.787L461.424 473.847L461.582 473.807L521.748 458.5L534.01 473.637L534.188 473.858L534.469 473.818L554.794 470.917L567.59 480.153L565.797 496.269L551.902 526.971L551.798 527.201L551.921 527.421L560.376 542.561L544.573 545.369L544.115 545.451L544.164 545.913L545.983 563.381L541.992 574.264L541.917 574.47L542.017 574.665L548.955 588.169L556.271 616.691L556.306 616.829L556.409 616.927L565.482 625.646L537.427 643.621L537.197 643.769V644.042V678.845Z" fill="black" stroke="white"/>
<path d="M367.708 673.206L367.796 673.03L367.74 672.841L348.493 608.231L395.536 605L407.122 630.694L407.267 631.016L407.619 630.986L429.613 629.155L429.926 629.128L430.038 628.835L434.643 616.792L457.355 622.467L465.363 669.04L465.42 669.373L465.751 669.444L483.982 673.373L481.173 691.273L457.659 697.78L457.292 697.882V698.262V731.235V731.37L457.36 731.486L468.744 751.042L446.035 756.007L358.517 746.856L358.429 746.847L358.343 746.868L342.894 750.729L345.759 717.451L367.708 673.206Z" fill="black" stroke="white"/>
<path d="M398.051 479.051H397.717L397.589 479.36L393.548 489.119L372.197 457.109L376.488 439.239L407.058 425.052L407.082 425.041L407.105 425.027L474.783 384.295L489.953 420.762L489.983 420.832L490.032 420.891L520.301 456.906L461.496 470.968L432.687 459.669L432.376 459.546L432.144 459.787L422.981 469.314L422.877 469.422L422.85 469.569L421.092 479.051H398.051Z" fill="black" stroke="white"/>
<path d="M350.315 409.731L350.296 409.772L350.284 409.816L345.939 426.102L330.473 435.09H318.88H318.599L318.453 435.331L300.996 464.048L270.095 465.844L262.531 447.125L262.44 446.901L262.209 446.833L236.545 439.246V412.222L246.784 380.057L246.873 379.777L246.671 379.563L241.076 373.62L258.268 347.129L276.607 351.082L314.709 362.067L314.894 362.12L315.067 362.036L330.656 354.426L346.235 358.771L346.468 358.836L346.663 358.694L362.258 347.359L370.017 368.159L350.315 409.731Z" fill="black" stroke="white"/>
<path d="M217.848 402.183L217.842 402.137L217.827 402.093L211.706 383.741L230.54 368.824L244.626 380.438L233.738 413.083L233.726 413.119L233.719 413.157L228.673 442.703L223.296 441.754L217.848 402.183Z" fill="black" stroke="white"/>
<path d="M205.01 420.811L200.674 384.334L207.148 383.039L215.391 403.1L218.293 444.803L215.057 446.274L205.01 420.811Z" fill="black" stroke="white"/>
<path d="M168.731 403.792L168.741 403.73L168.734 403.666L166.958 386.267H195.321L202.935 422.138L202.939 422.158L202.945 422.176L210.508 447.737L170.409 462.409L163.616 437.393L168.731 403.792Z" fill="black" stroke="white"/>
<path d="M106.781 415.553L106.799 415.476L106.792 415.396L104.641 391.395H134.714L148.508 401.917L148.682 402.05L148.897 402.012L163.038 399.539L164.799 414.325L160.415 438.064L160.392 438.185L160.429 438.303L166.796 458.809L147.408 456.343L147.305 456.33L147.206 456.359L111.192 466.796V451.709V451.534L111.084 451.398L101.337 439.132L106.781 415.553Z" fill="black" stroke="white"/>
<path d="M178.02 346.264L201.888 332.231L199.64 340.575L199.587 340.773L199.688 340.951L205.92 351.941L205.98 352.047L206.082 352.113L229.646 367.459L212.739 379.077L196.394 383.435H163.838H163.265L163.342 384.002L165.11 397.08L149.326 399.886L134.113 386.489L133.971 386.364H133.782H133.646L158.276 351.4L177.892 346.317L177.959 346.3L178.02 346.264Z" fill="black" stroke="white"/>
<path d="M69.653 428.224L69.7044 428.165L69.7351 428.092L76.3713 412.383L85.6951 424.117L88.5998 431.739L88.7646 432.171L89.2081 432.041L100.896 428.604L98.8375 440.267L98.7991 440.484L98.934 440.659L108.726 453.346V466.725L89.3321 458.971L63.0135 435.909L69.653 428.224Z" fill="black" stroke="white"/>
<path d="M68.469 426.547L61.9321 434.8L45.0006 414.702L60.8596 395.33L74.5627 410.781L68.469 426.547Z" fill="black" stroke="white"/>
<path d="M131.717 327.516V205.181L141.366 202.769L237.205 276.259L237.286 276.321L237.385 276.347L249.786 279.534L244.391 322.318L201.881 328.854L201.78 328.869L201.694 328.923L178.669 343.17L156.752 348.647L156.566 348.694L156.459 348.853L129.484 388.931H105.506L94.6472 366.499L94.4814 366.157L94.1071 366.225L72.3356 370.214L66.2284 365.467L68.2612 361.064L68.362 360.846L68.2544 360.631L56.6835 337.501L65.8205 328.016H131.217H131.717V327.516Z" fill="black" stroke="white"/>
<path d="M41.0772 363.093L29.4945 375.352L15.9097 373.923L6.79688 369.043L29.7405 362.095L41.0772 363.093Z" fill="black" stroke="white"/>
<path d="M30.8592 359.261L30.7517 359.245L30.6475 359.276L6.11867 366.488L1.54257 357.666L23.8404 356.959L23.8986 356.957L23.9549 356.942L37.5163 353.278L38.1783 353.099L37.8057 352.523L33.7739 346.295L33.6261 346.067H33.3542H9.45419L0.608765 330.506L18.0989 310.171L45.4551 322.043L65.7686 360.839L63.8848 363.976L30.8592 359.261Z" fill="black" stroke="white"/>
<path d="M61.2179 392.028L60.8458 391.609L60.4716 392.026L45.1294 409.144L26.2899 382.499L36.5651 370.457L58.5657 364.688L71.5792 372.637L71.7444 372.738L71.9345 372.702L92.4754 368.74L101.044 383.727L104.685 415.39L101.136 426.386L89.8246 429.469L88.8249 424.141L88.8012 424.015L88.7194 423.915L78.4566 411.459L78.4508 411.452L78.4447 411.445L61.2179 392.028Z" fill="black" stroke="white"/>
<path d="M9.16846 354.493L11.6933 348.185L32.1207 349.24V352.058L24.1161 354.493H9.16846Z" fill="black" stroke="white"/>
<path d="M19.6219 308.008L19.4898 307.952L19.3479 307.974L13.1368 308.953L18.4438 288.444L18.4823 288.295L18.4307 288.151L5.46802 251.8L51.3257 250.717L51.8346 250.705L51.8134 250.196L51.092 232.891L65.5215 223.157L65.7418 223.008V222.742V189.172H103.727H104.146L104.22 188.759L107.001 173.119L140.041 200.521L129.626 203.206L129.251 203.303V203.69V325.553H65.2418H65.0243L64.876 325.712L55.466 335.813L47.3607 319.962L47.2783 319.801L47.1117 319.73L19.6219 308.008Z" fill="black" stroke="white"/>
<path d="M62.6767 185.607H62.1767V186.107V219.948L49.5229 230.788L49.3482 230.937V231.167V248.269L7.47302 249.687L51.972 171.22H104.927L101.5 185.607H62.6767Z" fill="black" stroke="white"/>
<path d="M246.764 324.71L247.123 324.643L247.168 324.281L252.62 280.702L260.665 279.654L260.791 279.638L260.894 279.563L339.875 222.182L374.541 230.844L385.081 275.529L381.806 308.991L358.085 336.348L357.883 336.582L358.002 336.868L361.509 345.28L346.646 355.183L330.739 350.846L330.541 350.793L330.363 350.893L315.516 359.216L256.339 342.422L255.962 342.315L255.768 342.656L239.539 371.132L208.2 350.247L202.872 340.664L205.992 332.351L246.764 324.71Z" fill="black" stroke="white"/>
<path d="M186.783 104.643L182.82 110.585L176.654 104.422L176.298 104.066L175.944 104.425L152.18 128.543L103.143 152.318L102.861 152.454V152.768V168.021H56.4927L90.8307 142.545L91.0328 142.395V142.144V124.031L118.378 96.3346L118.391 96.3217L118.403 96.3078L145.624 64.3842L160.658 72.9713L160.732 73.0138L160.817 73.0291L184.628 77.3563L186.783 104.643Z" fill="black" stroke="white"/>
<path d="M188.893 107.297L185.996 73.622L256.228 50.7074L300.22 60.4382L287.266 90.2891L287.161 90.5298L287.3 90.7525L311.416 129.464V180.61V180.649L311.423 180.688L314.721 201.569L314.753 201.769L314.914 201.891L338.195 219.434L259.361 276.08L239.169 274.278L106.427 169.743V153.821L154.15 131.974L154.243 131.931L154.312 131.856L175.978 108.034L182.941 113.949L183.328 114.278L183.65 113.886L188.781 107.658L188.91 107.501L188.893 107.297Z" fill="black" stroke="white"/>
<path d="M302.84 61.7567L302.9 61.6269L302.882 61.485L301.837 53.1288L322.266 47.8478L329.325 63.0148L322.089 78.9249L321.953 79.2237L322.173 79.4672L339.055 98.1349L324.786 110.257L324.699 110.331L324.652 110.436L315.503 131.188L289.758 90.0862L302.84 61.7567Z" fill="black" stroke="white"/>
<path d="M340.763 50.6897L340.271 51.1809V50.6897H340.763Z" fill="black" stroke="white"/>
<path d="M367.204 62.1807L367.307 62.9078L366.58 62.2638L367.204 62.1807Z" fill="black" stroke="white"/>
<path d="M488.815 240.649L483.795 272.554L384.338 224.489L384.033 224.341L383.783 224.57L379.571 228.429L346.576 221.906L317.531 200.497L313.888 140.774L326.986 112.409L341.766 99.4377L372.057 103.042L379.269 118.542L379.349 118.715L379.524 118.791L416.91 134.91L417.1 134.992L417.292 134.916L434.886 127.955L435.268 127.804L435.194 127.4L432.676 113.74L448.363 98.4169L491.008 118.645L488.815 240.649Z" fill="black" stroke="white"/>
<path d="M476.318 70.0771L476.531 70.154L476.73 70.0438L479.829 68.3233L486.578 70.8085L486.732 70.8649L486.889 70.82L489.091 70.1908L490.725 72.8026L490.898 73.0783L491.22 73.0324L495.587 72.4087L495.165 73.8872L480.568 74.5989L466.15 71.084L467.626 66.9497L476.318 70.0771Z" fill="black" stroke="white"/>
<path d="M258.041 8.92627L258.695 10.8874L253.463 8.92627H258.041Z" fill="black" stroke="white"/>
<path d="M247.912 13.2132L245.702 16.9993L238.029 14.8519L245.797 10.1935L247.912 13.2132Z" fill="black" stroke="white"/>
<path d="M225.374 22.5795L227.114 21.1888V22.5795H225.374Z" fill="black" stroke="white"/>
<path d="M470.285 26.7634L477.525 36.6055L460.031 24.1151L461.916 22.2317L470.285 26.7634Z" fill="black" stroke="white"/>
<path d="M494.481 22.5242C493.651 22.0477 492.481 21.3321 491.459 20.6264C490.908 20.246 490.41 19.875 490.035 19.5503H494.329L497.643 21.2071L494.481 22.5242Z" fill="black" stroke="white"/>
<path d="M492.418 31.766L491.327 33.0748L489.55 28.0427L490.881 27.156L492.418 31.766Z" fill="black" stroke="white"/>
<path d="M501.039 38.6003L500.738 39.3528C500.45 39.2835 500.131 39.1932 499.856 39.0832C499.646 38.9992 499.492 38.9155 499.399 38.8409C499.372 38.8194 499.355 38.8033 499.346 38.7926V38.6003H501.039ZM499.334 38.7774C499.334 38.7774 499.335 38.7784 499.336 38.7804C499.334 38.7784 499.334 38.7774 499.334 38.7774Z" fill="black" stroke="white"/>
<path d="M493.946 40.5311H492.799L493.946 39.7671V40.5311Z" fill="black" stroke="white"/>
<path d="M487.894 46.6599L486.149 48.79V46.6599H487.894Z" fill="black" stroke="white"/>
<path d="M491.53 48.8582H491.998L491.249 49.8878L491.53 48.8582Z" fill="black" stroke="white"/>
<path d="M505.658 49.6899H503.897L505.252 49.0125L505.658 49.6899Z" fill="black" stroke="white"/>
<path d="M482.218 10.8571H479.72L482.218 9.3208V10.8571Z" fill="black" stroke="white"/>
<path d="M488.081 6.7995L486.94 7.30603L487.574 6.29297L488.081 6.7995Z" fill="black" stroke="white"/>
<path d="M483.95 3.1633V2.33154H485.151V3.1633H483.95Z" fill="black" stroke="white"/>
<path d="M474.276 0.5H475.458L475.162 1.53388L474.276 0.5Z" fill="black" stroke="white"/>
<path d="M746.705 270.732C746.543 270.945 746.403 271.127 746.286 271.278C746.17 271.128 746.03 270.946 745.868 270.735C745.351 270.059 744.611 269.082 743.723 267.876C741.947 265.463 739.58 262.138 737.214 258.485C734.846 254.83 732.486 250.857 730.719 247.148C728.944 243.42 727.801 240.027 727.801 237.508C727.801 227.307 736.081 219.032 746.287 219.032C756.494 219.032 764.772 227.307 764.772 237.508C764.772 240.008 763.63 243.392 761.854 247.117C760.087 250.823 757.727 254.798 755.36 258.458C752.993 262.115 750.626 265.447 748.85 267.866C747.963 269.075 747.223 270.055 746.705 270.732ZM746.287 246.58C751.258 246.58 755.216 242.544 755.216 237.655C755.216 232.686 751.179 228.73 746.287 228.73C741.393 228.73 737.357 232.761 737.357 237.655C737.357 242.545 741.317 246.58 746.287 246.58Z" fill="white" stroke="white"/>
</svg>
