<svg width="775" height="571" viewBox="0 0 775 571" fill="none" xmlns="http://www.w3.org/2000/svg">
<path d="M395.666 67.5929L382.57 63.7304L378.491 55.1472C378.491 56.0055 380.294 62.8721 381.496 64.8033L376.988 67.5929L372.05 80.8969L356.378 84.1156V72.7428L357.881 59.0096L363.248 62.2284L378.491 55.1472L392.445 49.5681L395.666 26.6079L414.558 28.9683L421.213 43.1306L425.507 59.0096L442.682 73.8157L444.185 79.3948H433.88L429.801 84.1156H421.213L395.666 67.5929Z" fill="#AA8B3C"/>
<path d="M354.661 72.743C355.39 68.3655 356.378 60.3831 356.378 59.0098L350.582 64.8035L347.576 72.743L350.582 79.395L354.661 84.1157V72.743Z" fill="#AA8B3C"/>
<path d="M435.597 80.897L431.948 84.1157L442.682 89.2656L444.185 84.1157L435.597 80.897Z" fill="#AA8B3C"/>
<path d="M391.157 48.2807L394.378 27.8955L376.988 28.9684H366.039L356.378 35.6204L357.881 43.1308H361.101L363.248 48.2807L359.384 59.0098L363.248 61.1556L375.915 55.1473L391.157 48.2807Z" fill="#AA8B3C"/>
<path d="M361.101 47.2081L357.881 45.7061L354.661 52.1435V55.1476L359.384 52.1435L361.101 47.2081Z" fill="#AA8B3C"/>
<path d="M427.224 59.0096L423.145 43.1306L413.055 23.3892L405.112 12.8747L407.903 9.44141L412.411 12.8747H419.496L431.948 11.3726L435.597 19.9559L460.93 34.1182L472.952 27.8954L497.641 22.1017L521.471 35.4057L515.031 50.8555L527.912 72.7428L529.2 86.476L539.934 102.57L536.499 109.865L534.782 117.59L517.392 115.874L502.794 105.359L480.466 102.57L466.512 92.9134L457.71 80.8969L447.19 79.3948L442.682 72.7428L427.224 59.0096Z" fill="#AA8B3C"/>
<path d="M541.437 102.57L530.703 86.4761L560.544 82.8282L564.194 71.4555L577.504 67.593L591.459 47.2078L589.312 36.6933L604.125 27.8955L626.238 40.5558L621.944 43.1308L606.702 45.7057V56.8639L614.86 62.2285V70.3825L606.702 89.2657L586.521 100.209L599.617 117.59L589.312 124.028L584.16 128.534L577.504 125.101L575.143 117.59L564.194 115.874L552.601 117.59L536.499 112.87L541.437 102.57Z" fill="#AA8B3C"/>
<path d="M530.703 85.4033L527.912 69.3097C524.391 63.7306 517.392 51.8857 517.392 50.8557C517.392 49.8257 519.325 43.1308 521.471 40.5558L538.646 37.7663L543.799 25.5352L564.194 28.9685L574.069 23.3894L584.16 19.9561L586.521 26.6081H604.125L588.024 35.4059L589.312 47.2078L576.86 66.7347L562.906 70.3826L560.544 80.8971L530.703 85.4033Z" fill="#AA8B3C"/>
<path d="M486.263 122.74L467.8 125.315L475.958 133.47L493.562 137.976L501.506 124.457V108.578L486.263 122.74Z" fill="#AA8B3C"/>
<path d="M494.85 137.976L502.794 124.457L525.98 141.409C519.024 151.065 505.112 170.635 504.941 171.665C504.769 172.695 491.544 177.544 484.975 179.819L475.958 163.94L490.342 160.507L501.506 146.344L494.85 137.976Z" fill="#AA8B3C"/>
<path d="M462.862 122.741L474.455 133.47L493.562 139.692L499.788 146.344L489.483 159.649L474.455 163.211L483.257 178.746L455.778 202.136L427.439 212.65L417.778 206.427L411.338 179.819L410.479 176.815L445.902 176.171L465.868 167.159L474.455 163.211L465.868 165.228L444.614 175.098H416.275H408.761L369.045 114.372L355.734 86.0472L372.694 81.9702L378.276 68.0224L383.214 64.8037L395.88 69.0953L421.213 86.0472L431.089 84.7597L451.269 100.853L462.862 122.741Z" fill="#AA8B3C"/>
<path d="M465.868 121.453V111.797L471.45 119.736L465.868 121.453Z" fill="#AA8B3C"/>
<path d="M461.574 113.084L460.071 111.797H461.574V113.084Z" fill="#AA8B3C"/>
<path d="M351.44 83.4719L345 72.7429H313.656L289.396 69.3096L287.464 140.55H351.44L361.316 131.538L338.13 83.4719L351.44 96.7759V83.4719Z" fill="#AA8B3C"/>
<path d="M351.226 142.053H287.679L284.458 160.721L281.882 190.977L271.148 203.852L288.752 246.125L293.046 232.821L316.447 242.262L325.249 233.893L334.695 237.541L345.429 221.448L354.446 238.4L371.621 199.56L368.83 187.758L383.429 172.309C379.865 168.875 372.694 161.751 372.694 160.721V146.774L361.531 133.684L351.226 142.053Z" fill="#AA8B3C"/>
<path d="M370.762 188.832L382.784 174.455L390.084 186.471L412.84 214.152C405.112 208.487 391.286 196.771 390.084 196.771C388.881 196.771 378.147 198.059 372.909 198.702L370.762 188.832Z" fill="#AA8B3C"/>
<path d="M406.615 221.662L411.123 215.225L418.208 218.014L412.411 227.67L406.615 221.662Z" fill="#AA8B3C"/>
<path d="M413.699 228.314L418.207 222.52L427.01 230.031L469.947 218.443L471.879 230.031L465.438 243.335L443.326 283.676L408.117 318.438L400.603 300.413L409.191 281.101L432.162 270.801L449.766 248.914L428.727 243.335L413.699 228.314Z" fill="#AA8B3C"/>
<path d="M354.231 278.956L333.192 281.96V290.543L324.819 308.568L329.757 318.224L350.582 314.576L359.813 294.405L354.231 278.956Z" fill="#AA8B3C"/>
<path d="M350.152 315.649L332.333 319.082L330.831 334.961L322.673 343.33L327.61 360.282L343.712 378.307L354.875 381.311L358.74 393.542L373.982 396.546L394.807 389.679L389.225 371.225L387.937 347.192L380.638 331.099L350.152 315.649Z" fill="#AA8B3C"/>
<path d="M305.498 443.753H292.831L302.921 460.276L317.091 474.868L331.474 477.443L339.203 473.58L346.717 440.749L322.243 427.016L305.498 443.753Z" fill="#AA8B3C"/>
<path d="M331.904 478.73L317.091 475.94L302.492 490.747L296.051 495.038L289.396 505.338L279.306 501.046H273.295L272.221 509.2L259.34 512.634L258.052 501.046L254.617 497.828V523.363L243.668 529.371L235.94 524.65H229.07L243.668 550.829L241.951 559.198L251.612 571L266.425 567.137H289.396L308.933 554.048L338.13 522.075L339.633 511.561H337.056L334.91 516.496L327.181 513.921V506.84L334.91 502.763L331.904 478.73Z" fill="#AA8B3C"/>
<path d="M334.909 504.265L328.04 507.484V513.063L333.836 515.423L336.627 511.346L334.909 504.265Z" fill="#AA8B3C"/>
<path d="M390.943 351.484V347.192L393.089 345.69L394.163 348.265L390.943 351.484Z" fill="#AA8B3C"/>
<path d="M394.163 361.784L389.44 358.136L390.728 354.059L394.163 355.99V361.784Z" fill="#AA8B3C"/>
<path d="M367.112 271.016L354.875 278.311L360.672 293.547L351.226 315.219L381.496 329.811L387.722 345.69L407.044 319.082L399.53 300.413L408.976 280.028L404.468 276.809L387.722 282.388L367.112 271.016Z" fill="#AA8B3C"/>
<path d="M326.966 43.5596L342.853 37.9805L338.13 46.3491L326.966 43.5596Z" fill="#AA8B3C"/>
<path d="M299.916 37.7664L303.136 32.8311L299.916 34.1185V37.7664Z" fill="#AA8B3C"/>
<path d="M413.914 12.8748L409.835 9.01232L411.982 7.51025L417.564 12.8748H413.914Z" fill="#AA8B3C"/>
<path d="M608.419 56.4348V46.564L622.803 44.2037L628.385 39.0537L643.842 44.2037L640.622 65.8763L656.509 77.8929V86.4761L703.525 107.505L711.683 109.222L715.976 103.643L713.615 96.1323L718.338 97.4197L725.208 107.505L739.162 105.574V100.424L744.315 97.4197L749.467 90.124H766.642L774.8 97.4197L759.558 107.505L753.332 137.332L744.315 128.963L747.321 118.02H740.88L735.513 120.809L720.485 109.222L715.976 115.874L725.208 128.963L724.134 135.401L727.355 140.336L710.18 146.988L711.683 154.713L700.734 162.438L697.084 167.802L671.966 190.548L661.876 245.266L647.921 241.618L620.012 166.086L617.436 154.713L613.571 141.409L605.843 150.636L588.453 141.409L598.758 135.401L585.877 128.963L601.334 118.02L588.453 100.424L607.131 90.124L615.504 73.8158L617.436 62.0139L608.419 56.4348Z" fill="#AA8B3C"/>
<path d="M317.735 243.121L293.475 234.967L289.826 246.769L313.226 276.595L325.249 273.377L333.836 280.887L354.017 277.883L365.824 270.587L356.378 257.927L344.141 246.769L351.44 243.121L354.017 239.687L345.215 224.452L335.768 239.687L325.249 234.967L317.735 243.121Z" fill="#AA8B3C"/>
<path d="M210.392 343.33L201.375 347.836L196.223 337.321L201.375 333.03L199.014 328.953L204.166 325.734H212.539L219.194 318.867L214.471 308.353L216.188 302.988L208.889 293.761H220.482L229.07 292.045L234.007 281.959H247.103L243.024 305.134L229.07 336.248L217.477 344.617L210.392 343.33Z" fill="#AA8B3C"/>
<path d="M200.302 332.815L196.008 336.248L180.551 317.794L185.274 300.199H197.511V292.259L207.601 293.547L215.115 302.988L213.397 308.353L218.121 318.867L212.324 325.09L204.595 324.017L197.511 329.167L200.302 332.815Z" fill="#AA8B3C"/>
<path d="M196.437 298.912H185.918V292.474H196.437V298.912Z" fill="#AA8B3C"/>
<path d="M169.043 304.319L165.523 305.521L164.793 303.332L168.314 302.13L169.043 304.319Z" fill="#AA8B3C"/>
<path d="M179.262 283.505L175.742 284.706L175.012 282.518L178.533 281.316L179.262 283.505Z" fill="#AA8B3C"/>
<path d="M186.562 291.186L177.545 272.303L186.562 257.282L195.579 255.78L204.166 250.845L206.742 239.687L218.335 216.727L223.702 230.46L214.256 236.039L224.776 253.849L219.409 255.78L216.618 268.441L229.928 287.753L228.64 291.186L220.697 292.259H208.46L186.562 291.186Z" fill="#AA8B3C"/>
<path d="M225.849 253.42L215.759 236.039L224.776 230.889L211.251 197.844L224.776 182.394L227.567 161.365L221.126 137.332L224.776 132.826L238.301 137.332L283.385 161.365L281.238 190.333L269.645 203.208L278.018 223.593L225.849 253.42Z" fill="#AA8B3C"/>
<path d="M353.802 243.12L372.694 200.204L389.869 198.058L410.479 213.508L404.253 221.662L426.795 243.12L447.834 249.343L431.089 270.157L410.479 279.384L404.253 275.736L387.722 281.101L367.327 270.157L345.858 247.197L353.802 243.12Z" fill="#AA8B3C"/>
<path d="M445.473 419.076L421.857 435.384L424.004 458.559L414.129 473.151V495.038L433.88 500.617L440.75 490.317L463.506 425.514L458.354 403.197L445.473 419.076Z" fill="#AA8B3C"/>
<path d="M374.412 397.833L358.74 395.044L357.022 404.7L367.113 424.227L362.389 432.81H354.231L353.158 421.866L343.926 414.571L323.961 426.372L348.435 440.32L339.847 474.009L333.192 477.872L337.057 510.703H339.847V504.051L355.734 492.034L362.389 483.022L353.158 465.855L370.547 443.324L389.44 435.599L400.389 416.931L395.236 391.61L374.412 397.833Z" fill="#AA8B3C"/>
<path d="M353.802 382.383L345.858 380.237L348.649 395.258L345.858 413.712L353.802 421.222L355.305 432.166H362.175L365.395 422.724L355.305 405.129L358.31 395.258L353.802 382.383Z" fill="#AA8B3C"/>
<path d="M344.141 380.452L331.474 368.221L316.017 377.877V395.902L326.966 404.271L320.311 410.064L306.356 399.55L285.317 393.971L283.17 406.202L269.645 410.064V425.943L276.3 440.106L303.78 442.895L320.311 427.231L344.141 413.283L348.005 395.902L344.141 380.452Z" fill="#AA8B3C"/>
<path d="M424.433 403.197H422.287V407.918H424.433V403.197Z" fill="#AA8B3C"/>
<path d="M430.545 412.363L428.714 413.482L430.729 416.778L432.561 415.659L430.545 412.363Z" fill="#AA8B3C"/>
<path d="M423.95 410.48L423.467 411.438L425.155 412.287L425.637 411.329L423.95 410.48Z" fill="#AA8B3C"/>
<path d="M509.956 331.099L509.474 332.057L511.162 332.906L511.644 331.947L509.956 331.099Z" fill="#AA8B3C"/>
<path d="M521.522 328.966L520.827 330.346L523.32 331.6L524.015 330.219L521.522 328.966Z" fill="#AA8B3C"/>
<path d="M514.449 334.522L513.329 336.746L517.318 338.752L518.438 336.528L514.449 334.522Z" fill="#AA8B3C"/>
<path d="M502.855 462.847L501.735 465.071L505.724 467.077L506.844 464.853L502.855 462.847Z" fill="#AA8B3C"/>
<path d="M511.597 460.969L508.169 461.943L508.709 463.842L512.137 462.868L511.597 460.969Z" fill="#AA8B3C"/>
<path d="M515.973 456.366L513.742 457L514.095 458.238L516.325 457.604L515.973 456.366Z" fill="#AA8B3C"/>
<path d="M512.107 454.306L509.877 454.94L510.229 456.178L512.46 455.545L512.107 454.306Z" fill="#AA8B3C"/>
<path d="M428.591 407.918L427.418 408.634L428.717 410.758L429.889 410.042L428.591 407.918Z" fill="#AA8B3C"/>
<path d="M259.34 500.188L255.047 496.54V489.674L260.414 472.722L262.775 448.903H279.521L291.543 443.324L302.063 461.134L315.803 475.726L295.622 493.536L289.182 504.265L279.521 500.188H271.577V507.699L260.414 511.99L259.34 500.188Z" fill="#AA8B3C"/>
<path d="M259.126 474.653L261.487 447.616H279.735L289.611 442.681L276.944 441.393L261.487 444.397L210.607 438.604L198.584 441.393L212.539 465.426L221.556 508.128L227.352 524.007H236.369L243.454 528.084L253.114 522.934V491.39L259.126 474.653Z" fill="#AA8B3C"/>
<path d="M320.311 319.726L331.475 318.653V324.447L321.599 328.953L320.311 319.726Z" fill="#AA8B3C"/>
<path d="M321.599 330.026L330.187 326.163V335.819L321.599 341.184L319.023 335.819L321.599 330.026Z" fill="#AA8B3C"/>
<path d="M320.096 408.777L325.034 404.7L314.944 397.618V377.233L331.689 366.504L326.107 361.14L321.814 344.402L317.735 336.463L320.096 330.025L319.023 319.726L328.684 318.009L323.531 308.782L331.689 290.757L332.763 281.101L325.034 275.522L313.012 277.238L305.712 268.226L270.289 277.238L253.544 270.586L248.821 275.522L243.883 305.349L229.714 336.463L217.691 345.69L210.392 344.402L201.59 348.479L203.307 354.917L233.149 352.556L238.945 367.792H250.753L253.544 359.638L269.001 363.071L273.295 390.752L284.888 392.683L305.712 397.618L320.096 408.777Z" fill="#AA8B3C"/>
<path d="M231.86 354.059L203.737 355.99L215.115 394.185L202.234 420.15L200.516 440.106L209.963 437.745L261.272 443.11L275.012 440.106L268.142 428.304V408.991L282.097 405.129L283.814 394.185L272.865 391.825L268.142 364.358L254.402 360.925L251.612 368.221L238.73 369.294L231.86 354.059Z" fill="#AA8B3C"/>
<path d="M233.149 280.886L230.572 287.109L217.691 267.797L220.267 257.068L238.301 248.699L278.233 224.666L287.249 246.339L305.283 267.797L270.289 276.165L253.329 269.513L247.962 275.093L246.888 280.886H233.149Z" fill="#AA8B3C"/>
<path d="M205.454 240.116L217.047 215.654L212.324 202.994L202.878 209.86L193.646 207.285L184.415 211.791L162.088 205.354L151.139 202.994L140.834 218.873L144.269 222.521L138.258 241.404V257.497L153.5 262.003L158.009 273.162L176.472 272.089L186.777 255.137H193.646L202.878 249.772L205.454 240.116Z" fill="#AA8B3C"/>
<path d="M143.625 222.735L135.037 215.654L123.659 224.666L127.309 235.61L130.529 258.999L134.179 259.643L137.184 242.047L143.625 222.735Z" fill="#AA8B3C"/>
<path d="M121.512 224.022L117.218 224.881L119.794 246.553L125.806 261.789L128.167 260.716L126.45 236.039L121.512 224.022Z" fill="#AA8B3C"/>
<path d="M114.642 225.954H97.4673L98.5408 236.468L95.5352 256.21L99.6142 271.23L123.659 262.432L119.151 247.197L114.642 225.954Z" fill="#AA8B3C"/>
<path d="M79.0048 228.958H60.9712L62.2594 243.335L59.0391 257.283L64.8356 264.578V273.805L86.3041 267.583L98.1119 269.085L94.2475 256.639L96.8237 242.691L95.7503 233.679L87.1629 235.181L79.0048 228.958Z" fill="#AA8B3C"/>
<path d="M87.3767 234.537L78.3599 226.597H77.7158L92.5291 205.568L104.123 202.564L118.721 193.981L117.218 199.56L120.868 205.997L135.037 215.224L124.732 222.306L115.072 224.881H95.9641L97.0375 232.82L87.3767 234.537Z" fill="#AA8B3C"/>
<path d="M40.5761 250.631L36.4971 255.352L52.1691 269.085L63.9768 273.806V265.437L58.1803 257.927L59.4684 250.631L52.1691 252.777L50.4516 248.27L44.6551 240.975L40.5761 250.631Z" fill="#AA8B3C"/>
<path d="M36.2824 255.137L25.9775 242.905L35.6383 231.104L44.011 240.545L40.3614 249.987L36.2824 255.137Z" fill="#AA8B3C"/>
<path d="M42.2929 217.156L38.4285 214.152L39.7167 211.362L32.8467 197.629L38.4285 191.835H76.8573V119.951L82.8685 118.449L139.116 161.58L146.63 163.511L143.41 189.046L118.292 192.908L104.767 201.277L91.8853 204.496L75.9985 228.1H61.6146L55.174 214.796L42.2929 217.156Z" fill="#AA8B3C"/>
<path d="M17.389 211.792L3.21973 216.083L9.23093 219.302L17.389 220.16L24.6883 212.435L17.389 211.792Z" fill="#AA8B3C"/>
<path d="M18.0336 210.719L3.43497 215.011L0.429371 209.217L13.9546 208.788L21.8979 206.642L19.5364 202.994H5.36714L0 193.552L10.5196 181.321L26.8357 188.402L38.8581 211.363L37.57 213.508L18.0336 210.719Z" fill="#AA8B3C"/>
<path d="M35.6381 229.816L26.4066 240.116L15.0283 224.023L21.2542 216.727L34.35 213.293L42.0787 218.014L54.3158 215.654L59.4682 224.666L61.6151 243.335L59.4682 249.987L52.3836 251.918L51.7395 248.485L45.7283 241.189L35.6381 229.816Z" fill="#AA8B3C"/>
<path d="M6.65499 203.638L19.1068 204.281V206.427L14.169 207.929H4.9375L6.65499 203.638Z" fill="#AA8B3C"/>
<path d="M11.3784 180.678L7.29941 181.321L10.5197 168.876L2.79102 147.203L30.0561 146.559L29.6267 136.259L38.2141 130.466V110.51H60.7561L62.4736 100.854L82.6541 117.591L75.9988 119.307V190.978H38.2141L32.4176 197.2L27.4799 187.544L11.3784 180.678Z" fill="#AA8B3C"/>
<path d="M29.1972 145.701L3.86426 146.559L30.2706 99.9951H61.8294L59.6825 109.008H36.7112V128.964L29.1972 135.401V145.701Z" fill="#AA8B3C"/>
<path d="M118.506 199.56L120.439 194.41L144.483 189.904L147.704 164.154L152.641 163.511L199.013 129.821L219.623 134.971L225.849 161.365L223.917 181.106L209.962 197.2L212.109 202.35L203.092 208.358L193.646 205.783L184.844 210.718L150.065 200.848L140.404 217.8L121.727 205.354L118.506 199.56Z" fill="#AA8B3C"/>
<path d="M60.5416 98.7071H32.2031L53.0276 83.2573V72.5282L69.129 56.22L85.2304 37.3369L94.2472 42.4869L108.416 45.0618L109.704 61.37L107.128 65.2324L103.264 61.37L89.3094 75.5323L60.5416 89.4801V98.7071Z" fill="#AA8B3C"/>
<path d="M62.0439 99.5654V89.9093L90.1677 77.0344L103.049 62.8721L107.343 66.52L110.348 62.8721L108.631 42.9161L150.065 29.3975L176.257 35.1911L168.528 53.0014L182.698 75.747V105.788L184.63 118.019L198.584 128.534L151.997 162.009L139.975 160.936L62.0439 99.5654Z" fill="#AA8B3C"/>
<path d="M177.116 36.0498L176.472 30.8999L188.923 27.6812L193.217 36.9081L188.923 46.3497L199.014 57.5079L190.426 64.8037L184.844 77.4639L169.387 52.7871L177.116 36.0498Z" fill="#AA8B3C"/>
<path d="M199.014 30.6849V29.3975H200.302L199.014 30.6849Z" fill="#AA8B3C"/>
<path d="M214.042 36.264L215.33 36.0923L215.544 37.5944L214.042 36.264Z" fill="#AA8B3C"/>
<path d="M191.285 65.6621L200.087 57.9372L218.121 60.083L222.414 69.31L244.312 78.7516L254.617 74.6745L253.114 66.5204L262.56 57.2935L287.893 69.31L286.605 140.98L283.6 160.078L224.99 131.753L222.414 134.113L202.878 130.251L185.703 117.591L183.556 82.3994L191.285 65.6621Z" fill="#AA8B3C"/>
<path d="M279.091 40.7706L273.724 38.8394L272.651 41.8435L281.453 43.9893L290.255 43.5601L290.684 42.0581L287.679 42.4872L286.605 40.7706L285.103 41.1997L281.024 39.6977L279.091 40.7706Z" fill="#AA8B3C"/>
<path d="M151.997 6.86678L146.845 4.93555H151.353L151.997 6.86678Z" fill="#AA8B3C"/>
<path d="M144.054 10.2999L138.687 8.79782L144.054 5.5791L145.557 7.72491L144.054 10.2999Z" fill="#AA8B3C"/>
<path d="M133.32 13.5184V11.8018L131.173 13.5184H133.32Z" fill="#AA8B3C"/>
<path d="M281.023 22.7455L269.001 14.1622L270.504 12.6602L275.656 15.4497L281.023 22.7455Z" fill="#AA8B3C"/>
<path d="M289.611 13.5186C288.623 12.9607 286.562 11.6732 286.391 11.1582H289.611L292.187 12.4457L289.611 13.5186Z" fill="#AA8B3C"/>
<path d="M287.679 19.9559L286.391 16.308L287.679 15.4497L288.752 18.6684L287.679 19.9559Z" fill="#AA8B3C"/>
<path d="M293.475 23.3893C293.046 23.3035 292.188 23.0889 292.188 22.7456V22.3164H293.904L293.475 23.3893Z" fill="#AA8B3C"/>
<path d="M289.611 22.7456L287.679 24.0331H289.611V22.7456Z" fill="#AA8B3C"/>
<path d="M284.458 29.3975V27.0371H286.391L284.458 29.3975Z" fill="#AA8B3C"/>
<path d="M287.035 30.6851L287.679 28.3247H288.752L287.035 30.6851Z" fill="#AA8B3C"/>
<path d="M296.051 28.3247L293.905 29.3976H296.695L296.051 28.3247Z" fill="#AA8B3C"/>
<path d="M282.741 6.65219H279.95L282.741 4.93555V6.65219Z" fill="#AA8B3C"/>
<path d="M284.458 4.9354L285.532 3.21875L286.391 4.07707L284.458 4.9354Z" fill="#AA8B3C"/>
<path d="M283.17 2.14566V1.07275H284.459V2.14566H283.17Z" fill="#AA8B3C"/>
<path d="M278.447 1.50207L278.877 0H277.159L278.447 1.50207Z" fill="#AA8B3C"/>
<path fill-rule="evenodd" clip-rule="evenodd" d="M437.121 159.372C437.121 159.372 448.241 145.252 448.241 139.115C448.241 132.978 443.261 128 437.121 128C430.981 128 426 132.978 426 139.115C426 145.295 437.121 159.372 437.121 159.372ZM437.121 144.136C439.869 144.136 442.058 141.905 442.058 139.201C442.058 136.454 439.826 134.266 437.121 134.266C434.416 134.266 432.183 136.497 432.183 139.201C432.183 141.905 434.373 144.136 437.121 144.136Z" fill="white"/>
</svg>
