<svg width="20" height="23" viewBox="0 0 20 23" fill="none" xmlns="http://www.w3.org/2000/svg">
<path d="M4.23077 14.7308C6.01507 14.7308 7.46154 13.2844 7.46154 11.5001C7.46154 9.71575 6.01507 8.26929 4.23077 8.26929C2.44646 8.26929 1 9.71575 1 11.5001C1 13.2844 2.44646 14.7308 4.23077 14.7308Z" stroke="black" stroke-width="2" stroke-linecap="round" stroke-linejoin="round"/>
<path d="M15.5384 22C17.3227 22 18.7692 20.5535 18.7692 18.7692C18.7692 16.9849 17.3227 15.5385 15.5384 15.5385C13.7541 15.5385 12.3076 16.9849 12.3076 18.7692C12.3076 20.5535 13.7541 22 15.5384 22Z" stroke="black" stroke-width="2" stroke-linecap="round" stroke-linejoin="round"/>
<path d="M15.5384 7.46154C17.3227 7.46154 18.7692 6.01507 18.7692 4.23077C18.7692 2.44646 17.3227 1 15.5384 1C13.7541 1 12.3076 2.44646 12.3076 4.23077C12.3076 6.01507 13.7541 7.46154 15.5384 7.46154Z" stroke="black" stroke-width="2" stroke-linecap="round" stroke-linejoin="round"/>
<path d="M12.8223 5.97742L6.94629 9.75338" stroke="black" stroke-width="2" stroke-linecap="round" stroke-linejoin="round"/>
<path d="M6.94629 13.2466L12.8223 17.0225" stroke="black" stroke-width="2" stroke-linecap="round" stroke-linejoin="round"/>
</svg>
