<svg width="13" height="13" viewBox="0 0 13 13" fill="none" xmlns="http://www.w3.org/2000/svg">
<path d="M6.75 5.25V12" stroke="white" stroke-linecap="round" stroke-linejoin="round"/>
<path d="M6.75 1V2.75" stroke="white" stroke-linecap="round" stroke-linejoin="round"/>
<path d="M6.74902 5.24999C7.43938 5.24999 7.99902 4.69035 7.99902 3.99999C7.99902 3.30964 7.43938 2.75 6.74902 2.75C6.05867 2.75 5.49902 3.30964 5.49902 3.99999C5.49902 4.69035 6.05867 5.24999 6.74902 5.24999Z" stroke="white" stroke-linecap="round" stroke-linejoin="round"/>
<path d="M11.251 10.25V12" stroke="white" stroke-linecap="round" stroke-linejoin="round"/>
<path d="M11.251 1V7.75" stroke="white" stroke-linecap="round" stroke-linejoin="round"/>
<path d="M11.249 10.25C11.9394 10.25 12.499 9.69036 12.499 9C12.499 8.30964 11.9394 7.75 11.249 7.75C10.5587 7.75 9.99902 8.30964 9.99902 9C9.99902 9.69036 10.5587 10.25 11.249 10.25Z" stroke="white" stroke-linecap="round" stroke-linejoin="round"/>
<path d="M2.24902 8.25V12" stroke="white" stroke-linecap="round" stroke-linejoin="round"/>
<path d="M2.24902 1V5.75" stroke="white" stroke-linecap="round" stroke-linejoin="round"/>
<path d="M2.25 8.24999C2.94036 8.24999 3.5 7.69035 3.5 6.99999C3.5 6.30964 2.94036 5.75 2.25 5.75C1.55964 5.75 1 6.30964 1 6.99999C1 7.69035 1.55964 8.24999 2.25 8.24999Z" stroke="white" stroke-linecap="round" stroke-linejoin="round"/>
</svg>
