<svg width="21" height="21" viewBox="0 0 21 21" fill="none" xmlns="http://www.w3.org/2000/svg">
<g clip-path="url(#clip0_212_783)">
<path d="M2.31888 15.2487C1.14678 13.2712 0.736785 10.9338 1.16589 8.67545C1.59499 6.41706 2.83366 4.39296 4.64937 2.98313C6.46508 1.5733 8.73296 0.874704 11.0272 1.01849C13.3215 1.16227 15.4844 2.13855 17.1099 3.76404C18.7354 5.38952 19.7117 7.55244 19.8555 9.84672C19.9993 12.141 19.3007 14.4089 17.8908 16.2246C16.481 18.0403 14.4569 19.279 12.1985 19.7081C9.94014 20.1372 7.60279 19.7272 5.62527 18.5551L2.35824 19.4801C2.22439 19.5192 2.08247 19.5217 1.94736 19.4871C1.81226 19.4525 1.68893 19.3823 1.59032 19.2837C1.49171 19.185 1.42144 19.0617 1.38687 18.9266C1.35231 18.7915 1.35473 18.6496 1.39388 18.5157L2.31888 15.2487Z" stroke="white" stroke-linecap="round" stroke-linejoin="round"/>
<path d="M12.8187 15.9375C11.7829 15.9401 10.7568 15.738 9.79928 15.3428C8.8418 14.9476 7.97184 14.3671 7.2394 13.6346C6.50695 12.9022 5.92645 12.0322 5.53126 11.0748C5.13606 10.1173 4.93395 9.09115 4.93655 8.05531C4.93915 7.32627 5.23059 6.62796 5.74703 6.11337C6.26347 5.59877 6.96281 5.30983 7.69187 5.30984C7.81215 5.30888 7.93047 5.34036 8.03437 5.40097C8.13828 5.46158 8.22392 5.54907 8.28229 5.65425L9.43362 7.6617C9.50209 7.78373 9.53723 7.92164 9.5355 8.06155C9.53377 8.20147 9.49524 8.33847 9.42378 8.45877L8.49878 10.0037C8.97258 11.0577 9.81632 11.9015 10.8703 12.3753L12.4153 11.4503C12.5356 11.3788 12.6726 11.3403 12.8125 11.3385C12.9524 11.3368 13.0903 11.372 13.2123 11.4404L15.2198 12.5918C15.325 12.6501 15.4125 12.7358 15.4731 12.8397C15.5337 12.9436 15.5652 13.0619 15.5642 13.1822C15.5616 13.9104 15.2719 14.6083 14.7578 15.1242C14.2438 15.6401 13.547 15.9323 12.8187 15.9375Z" stroke="white" stroke-linecap="round" stroke-linejoin="round"/>
</g>
<defs>
<clipPath id="clip0_212_783">
<rect width="21" height="21" fill="white"/>
</clipPath>
</defs>
</svg>
