<svg width="34" height="34" viewBox="0 0 34 34" fill="none" xmlns="http://www.w3.org/2000/svg">
<g clip-path="url(#clip0_212_778)">
<path d="M17 34C26.3888 34 34 26.3888 34 17C34 7.61116 26.3888 0 17 0C7.61116 0 0 7.61116 0 17C0 26.3888 7.61116 34 17 34Z" fill="#25D366"/>
<path d="M9.31888 22.2487C8.14678 20.2712 7.73679 17.9338 8.16589 15.6754C8.59499 13.4171 9.83366 11.393 11.6494 9.98313C13.4651 8.5733 15.733 7.87471 18.0272 8.01849C20.3215 8.16227 22.4844 9.13855 24.1099 10.764C25.7354 12.3895 26.7117 14.5524 26.8555 16.8467C26.9993 19.141 26.3007 21.4089 24.8908 23.2246C23.481 25.0403 21.4569 26.279 19.1985 26.7081C16.9401 27.1372 14.6028 26.7272 12.6253 25.5551L9.35824 26.4801C9.22439 26.5192 9.08247 26.5217 8.94736 26.4871C8.81226 26.4525 8.68893 26.3823 8.59032 26.2837C8.49171 26.185 8.42144 26.0617 8.38687 25.9266C8.35231 25.7915 8.35473 25.6496 8.39388 25.5157L9.31888 22.2487Z" stroke="white" stroke-linecap="round" stroke-linejoin="round"/>
<path d="M19.8185 22.9375C18.7827 22.9401 17.7565 22.738 16.7991 22.3428C15.8416 21.9476 14.9716 21.3671 14.2392 20.6346C13.5067 19.9022 12.9262 19.0322 12.531 18.0748C12.1358 17.1173 11.9337 16.0911 11.9363 15.0553C11.9389 14.3263 12.2304 13.628 12.7468 13.1134C13.2633 12.5988 13.9626 12.3098 14.6916 12.3098C14.8119 12.3089 14.9302 12.3404 15.0342 12.401C15.1381 12.4616 15.2237 12.5491 15.2821 12.6543L16.4334 14.6617C16.5019 14.7837 16.537 14.9216 16.5353 15.0616C16.5336 15.2015 16.495 15.3385 16.4236 15.4588L15.4986 17.0037C15.9724 18.0577 16.8161 18.9015 17.8701 19.3753L19.415 18.4503C19.5354 18.3788 19.6724 18.3403 19.8123 18.3385C19.9522 18.3368 20.0901 18.372 20.2121 18.4404L22.2196 19.5918C22.3247 19.6501 22.4122 19.7358 22.4729 19.8397C22.5335 19.9436 22.5649 20.0619 22.564 20.1822C22.5614 20.9104 22.2716 21.6083 21.7576 22.1242C21.2436 22.6401 20.5468 22.9323 19.8185 22.9375Z" stroke="white" stroke-linecap="round" stroke-linejoin="round"/>
</g>
<defs>
<clipPath id="clip0_212_778">
<rect width="34" height="34" fill="white"/>
</clipPath>
</defs>
</svg>
