<svg width="48" height="48" viewBox="0 0 48 48" fill="none" xmlns="http://www.w3.org/2000/svg">
<circle cx="24" cy="24" r="24" fill="white"/>
<path d="M30.0628 9H17.9372C13.0092 9 9 13.0092 9 17.9372V30.0628C9 34.9908 13.0092 39 17.9372 39H30.0628C34.9908 39 39 34.9908 39 30.0628V17.9372C38.9999 13.0092 34.9908 9 30.0628 9ZM35.982 30.0628C35.982 33.3319 33.3319 35.982 30.0628 35.982H17.9372C14.6681 35.982 12.018 33.3319 12.018 30.0628V17.9372C12.018 14.6681 14.6681 12.018 17.9372 12.018H30.0628C33.3319 12.018 35.982 14.6681 35.982 17.9372V30.0628Z" fill="url(#paint0_linear_37638_55)"/>
<path d="M23.9999 16.2419C19.7216 16.2419 16.2408 19.7227 16.2408 24.001C16.2408 28.2793 19.7216 31.76 23.9999 31.76C28.2783 31.76 31.759 28.2793 31.759 24.001C31.759 19.7226 28.2783 16.2419 23.9999 16.2419ZM23.9999 28.7421C21.3815 28.7421 19.2588 26.6195 19.2588 24.001C19.2588 21.3826 21.3815 19.2599 23.9999 19.2599C26.6184 19.2599 28.741 21.3826 28.741 24.001C28.741 26.6194 26.6183 28.7421 23.9999 28.7421Z" fill="url(#paint1_linear_37638_55)"/>
<path d="M31.7743 18.1585C32.8011 18.1585 33.6335 17.3262 33.6335 16.2994C33.6335 15.2726 32.8011 14.4402 31.7743 14.4402C30.7475 14.4402 29.9152 15.2726 29.9152 16.2994C29.9152 17.3262 30.7475 18.1585 31.7743 18.1585Z" fill="url(#paint2_linear_37638_55)"/>
<defs>
<linearGradient id="paint0_linear_37638_55" x1="24" y1="38.9126" x2="24" y2="9.233" gradientUnits="userSpaceOnUse">
<stop stop-color="#E09B3D"/>
<stop offset="0.3" stop-color="#C74C4D"/>
<stop offset="0.6" stop-color="#C21975"/>
<stop offset="1" stop-color="#7024C4"/>
</linearGradient>
<linearGradient id="paint1_linear_37638_55" x1="23.9999" y1="38.9136" x2="23.9999" y2="9.23402" gradientUnits="userSpaceOnUse">
<stop stop-color="#E09B3D"/>
<stop offset="0.3" stop-color="#C74C4D"/>
<stop offset="0.6" stop-color="#C21975"/>
<stop offset="1" stop-color="#7024C4"/>
</linearGradient>
<linearGradient id="paint2_linear_37638_55" x1="31.7743" y1="38.9127" x2="31.7743" y2="9.23308" gradientUnits="userSpaceOnUse">
<stop stop-color="#E09B3D"/>
<stop offset="0.3" stop-color="#C74C4D"/>
<stop offset="0.6" stop-color="#C21975"/>
<stop offset="1" stop-color="#7024C4"/>
</linearGradient>
</defs>
</svg>
