<svg width="12" height="23" viewBox="0 0 12 23" fill="none" xmlns="http://www.w3.org/2000/svg">
<path d="M9.18111 22.0209C8.94614 22.0217 8.71398 21.9699 8.50169 21.8692C8.2894 21.7685 8.10237 21.6215 7.95434 21.439L0.35779 12.0023C0.126462 11.7209 0 11.3679 0 11.0036C0 10.6393 0.126462 10.2863 0.35779 10.0049L8.22171 0.568172C8.48867 0.246983 8.87229 0.0449993 9.28818 0.00665524C9.70406 -0.0316888 10.1181 0.0967478 10.4393 0.36371C10.7605 0.630672 10.9625 1.01429 11.0009 1.43018C11.0392 1.84606 10.9108 2.26015 10.6438 2.58134L3.61345 11.0115L10.4079 19.4416C10.6002 19.6724 10.7224 19.9536 10.7599 20.2517C10.7975 20.5498 10.7489 20.8524 10.6198 21.1238C10.4908 21.3951 10.2867 21.6238 10.0317 21.7828C9.77674 21.9418 9.48156 22.0245 9.18111 22.0209Z" fill="white"/>
</svg>
